<?xml version="1.0" encoding="UTF-8" standalone="no"?> <!-- Created with Vectornator for iOS (http://vectornator.io/) --><!DOCTYPE svg PUBLIC "-//W3C//DTD SVG 1.1//EN" "http://www.w3.org/Graphics/SVG/1.1/DTD/svg11.dtd">
<svg height="100%" style="fill-rule:nonzero;clip-rule:evenodd;stroke-linecap:round;stroke-linejoin:round;" xmlns:xlink="http://www.w3.org/1999/xlink" xmlns="http://www.w3.org/2000/svg" xml:space="preserve" width="100%" xmlns:vectornator="http://vectornator.io" version="1.1" viewBox="0 0 1024 1024">
<metadata>
<vectornator:setting key="DimensionsVisible" value="1"/>
<vectornator:setting key="PencilOnly" value="0"/>
<vectornator:setting key="SnapToPoints" value="0"/>
<vectornator:setting key="OutlineMode" value="0"/>
<vectornator:setting key="CMYKEnabledKey" value="0"/>
<vectornator:setting key="RulersVisible" value="1"/>
<vectornator:setting key="SnapToEdges" value="0"/>
<vectornator:setting key="GuidesVisible" value="1"/>
<vectornator:setting key="DisplayWhiteBackground" value="0"/>
<vectornator:setting key="doHistoryDisabled" value="0"/>
<vectornator:setting key="SnapToGuides" value="1"/>
<vectornator:setting key="TimeLapseWatermarkDisabled" value="0"/>
<vectornator:setting key="Units" value="Points"/>
<vectornator:setting key="DynamicGuides" value="0"/>
<vectornator:setting key="IsolateActiveLayer" value="0"/>
<vectornator:setting key="SnapToGrid" value="0"/>
</metadata>
<defs/>
<g id="Layer 2" vectornator:layerName="Layer 2" visibility="hidden">
<path stroke="#000000" vectornator:shadowColor="#000000" vectornator:shadowOffset="-3" stroke-width="6.08321" fill="none" stroke-linecap="round" vectornator:shadowAngle="1.0177" stroke-linejoin="round" opacity="1" vectornator:shadowRadius="2" d="M505.112+431.785C505.112+431.785+546.778+280.115+551.019+266.683C582.757+166.177+762.551-77.8084+877.105+64.7441C934.509+136.179+925.284+213.685+916.976+289.136C897.261+468.17+761.776+645.757+662.887+776.138C643.271+802.002+606.574+848.248+569.478+899.974C528.455+957.175+505.112+998.197+505.112+998.197" vectornator:shadowOpacity="0.141964"/>
<path stroke="#000000" vectornator:shadowColor="#000000" vectornator:shadowOffset="-3" stroke-width="6.08321" fill="none" stroke-linecap="round" vectornator:shadowAngle="1.0177" stroke-linejoin="round" opacity="1" vectornator:shadowRadius="2" d="M505.112+1000.49C497.104+952.211+408.774+848.533+408.774+848.533C263.068+617.436-26.7053+279.148+146.257+86.5279C269.997-51.2748+415.968+165.135+465.052+278.267C480.823+314.617+505.112+431.785+505.112+431.785L505.112+431.785" vectornator:shadowOpacity="0.141964"/>
</g>
<g id="Layer 7" vectornator:layerName="Layer 7">
<path stroke="#ffffff" stroke-width="23.6494" d="M437.571+534.581C435.75+553.946+427.035+584.453+430.871+606.929C436.746+588.788+433.246+568.503+438.444+550.036C439.74+564.244+435.886+578.584+432.265+592.239C432.052+592.98+431.01+592.713+430.887+592.084C422.978+554.965+437.189+515.849+431.772+478.557C429.077+479.531+427.519+482.434+425.92+484.666C415.931+510.713+417.434+540.551+409.493+566.742C409.013+529.702+417.648+491.753+414.912+454.859C412.22+455.322+410.629+458.268+409.068+460.282C396.714+492.846+394.639+528.319+388.07+562.351C391.685+532.844+396.339+503.201+396.888+473.376C396.77+472.584+396.707+471.148+395.588+471.106C393.484+471.325+391.847+473.036+390.706+474.692C379.4+502.731+378.361+533.593+370.513+562.542C370.38+564.615+368.498+562.269+369.18+561.658C368.219+538.998+371.783+515.708+367.386+493.346C366.292+491.834+364.571+490.097+362.529+490.451C360.715+490.904+359.669+492.645+358.661+494.055C346.165+518.243+341.461+546.149+338.959+573.043C362.357+530.491+371.977+479.015+404.303+441.408C406.527+440.7+406.744+444.05+406.875+445.491C402.926+483.412+385.09+520.497+385.222+558.415C387.588+558.242+389.37+556.094+390.804+554.383C413.217+513.188+421.995+466.062+444.063+424.582C444.445+424.214+444.769+423.159+445.256+424.026C437.192+478.413+426.046+533.239+420.976+587.98C423.456+585.807+424.776+582.634+425.71+579.542C440.187+517.322+455.469+455.055+477.108+394.976C453.982+478.846+444.626+565.526+428.088+650.733C427.941+651.595+428.258+649.863+428.269+649.843C439.99+584.456+450.467+518.334+472.062+455.329C468.859+460.252+466.272+465.572+464.085+471.019C435.174+558.815+427.595+652.482+411.374+742.664C420.84+682.078+423.299+617.477+444.684+560.384C445.902+563.402+445.445+566.828+445.544+570.007C440.824+628.222+441.852+686.633+441.965+744.982C442.385+747.475+441.951+750.587+443.656+752.623C447.458+750.091+448.869+744.926+450.079+740.709C456.816+666.94+468.744+593.641+481.886+520.845C461.655+599.129+462.946+681.762+465.586+762.156C466.39+766.381+466.66+771.202+469.057+774.831C473.008+771.561+474.462+765.194+475.975+760.318C487.856+678.843+495.552+596.658+508.045+515.326C494.289+593.018+498.429+672.148+499.334+750.604C499.245+753.065+499.488+755.597+499.241+758.025C494.24+702.451+501.379+645.319+490.228+590.61C488.458+587.499+484.886+583.009+480.849+585.113C477.481+587.227+475.397+590.77+473.43+594.11C446.302+649.201+438.931+710.896+424.106+769.789C424.075+772.184+422.175+769.338+423.06+768.901C424.7+715.461+429.957+661.925+438.347+609.177C438.034+647.619+434.656+687.057+437.243+725.801C437.741+728.506+439.196+730.997+441.339+732.725C445.912+734.199+447.215+726.797+449.22+724.178C469.995+652.87+471.679+576.808+496.903+506.628C498.713+506.935+497.033+511.159+497.552+512.303C487.556+592.009+483.447+674.855+500.71+753.687C501.709+756.72+504.278+753.969+504.959+752.333C506.915+749.314+508.139+745.844+508.664+742.293C513.847+651.462+518.887+560.438+529.542+470.185C527.021+474.209+526.143+479.08+524.788+483.579C507.069+568.823+508.256+656.97+515.592+743.363C517.79+738.746+517.929+731.109+518.701+725.449C520.63+649.788+528.723+574.456+534.064+499.021C533.682+494.874+534.705+489.419+531.947+486.081C529.225+486.824+527.947+489.917+526.613+492.144C507.33+550.29+507.026+612.659+500.477+673.115C500.365+673.704+500.082+674.961+499.163+674.745C495.341+672.282+493.397+667.705+491.648+663.67C480.434+601.932+484.185+538.486+482.206+476.003C481.915+473.75+481.098+471.512+479.592+469.783C474.871+469.745+474.633+478.039+472.371+481.078C455.594+549.592+456.127+621.219+458.068+691.222C458.204+620.683+452.968+549.805+455.382+479.083C445.079+550.736+447.201+625.276+462.372+696.159C463.453+698.769+464.696+702.284+467.743+703.081C471.786+702.222+474.064+697.974+475.57+694.481C489.29+624.792+484.31+550.33+502.686+482.23C503.394+572.814+501.497+665.535+527.36+753.333C529.026+755.947+533.717+755.377+534.154+752.046C537.736+665.316+530.845+577.759+541.74+491.207C542.473+488.679+542.126+494.876+542.218+494.395C539.673+574.056+544.248+653.889+557.93+732.45C558.317+732.895+557.656+734.305+558.581+734.255C560.09+729.624+560.56+724.692+560.92+719.856C554.609+634.177+549.021+547.687+557.881+461.987C555.967+464.027+555.791+467.399+555.074+469.985C545.111+565.068+553.474+660.825+570.437+754.611C567.262+666.391+553.49+577.636+563.476+489.567C563.399+573.93+569.169+658.69+586.491+741.267C588.171+737.097+588.968+732.521+588.632+728.012C578.857+648.931+574.833+569.056+580.253+489.487C581.516+488.759+579.407+485.442+580.996+484.85C579.652+574.199+579.995+665.86+600.071+752.963C601.385+747.392+601.975+741.614+601.831+735.884C596.173+654.45+595.535+571.079+605.695+490.689C604.374+569.714+603.409+649.705+620.609+727.312C621.172+729.253+622.598+730.837+624.303+731.868C627.922+731.649+626.367+725.488+627.141+723.161C624.088+643.489+618.433+563.092+628.566+483.735C629.358+567.232+632.055+652.207+652.735+733.514C654.214+730.195+653.958+726.021+653.945+722.389C646.799+638.498+643.543+554.057+650.064+470.045C645.11+541.646+645.415+614.212+657.762+685.057C659.009+687.982+659.136+692.58+662.211+694.151C665.652+690.362+667.037+684.874+667.951+679.921C672.133+605.815+669.321+530.12+688.208+457.768C689.39+455.523+689.494+461.109+689.541+460.378C688.482+509.965+684.583+560.239+693.418+609.411C694.099+611.287+694.334+613.692+695.99+615.014C698.4+613.985+699.319+610.737+700.431+608.544C708.772+566.089+707.405+522.039+715.977+479.563C717.386+478.697+716.245+484.131+716.61+484.649C712.939+524.583+709.836+565.425+713.9+605.266C715.962+602.578+716.904+599.125+717.443+595.816C717.817+554.427+717.731+512.474+716.142+471.336C714.2+474.099+712.958+477.443+712.078+480.701C707.285+521.035+703.507+563.27+712.897+603.185C714.042+605.236+714.517+609.303+717.319+609.548C719.977+606.708+721.256+602.715+722.427+599.07C726.003+554.531+725.634+509.563+726.202+464.848C725.973+463.713+726.195+461.906+724.874+461.324C722.766+461.053+721.376+463.256+720.435+464.806C705.78+505.496+704.904+550.856+688.497+590.738C686.939+592.718+684.628+590.632+683.84+589.057C671.758+553.295+676.596+512.531+674.734+475.994C665.314+516.914+672.394+559.557+667.798+600.997C667.407+601.845+667.53+600.535+667.403+600.275C666.728+539.509+669.08+478.773+672.213+418.1C670.177+416.894+671.763+424.822+669.813+423.007C652.187+481.782+659.897+545.039+645.649+604.233C645.121+606.623+643.007+604.943+643.231+603.272C635.054+542.005+638.573+478.896+638.195+417.87C636.028+419.114+635.516+421.925+634.711+424.088C620.983+480.407+626.587+539.976+614.922+596.173C609.46+542.258+612.449+486.417+610.093+432.745C608.347+434.741+607.911+437.509+607.314+440.005C600.864+487.747+602.992+536.184+598.889+584.099C600.6+578.992+601.612+573.655+602.132+568.298C605.361+511.244+609.306+454.125+615.72+397.351C599.636+446.884+602.461+500.608+588.247+550.555C594.921+491.365+598.504+431.253+600.638+371.94C581.194+418.795+579.412+471.316+561.875+518.852C572.089+476.151+573.506+431.665+582.673+388.704C580.097+390.879+579.042+394.53+577.658+397.503C566.404+440.046+562.023+484.495+547.708+526.264C551.83+476.958+558.814+427.689+566.519+378.756C548.79+418.834+544.592+465.029+528.745+506.441C527.02+505.107+528.531+501.464+528.166+499.519C535.987+450.809+542.843+401.794+554.435+353.806C551.724+356.826+550.597+361.062+549.046+364.753C532.283+418.642+520.535+474.243+500.374+527.024C498.471+528.195+499.024+523.486+498.622+522.763C498.565+478.573+509.059+435.092+516.907+391.792C499.306+436.432+488.993+485.655+465.673+528.078C462.245+527.057+462.881+521.455+461.624+518.73C460.692+489.23+469.955+459.818+472.128+430.661C457.593+449.728+450.8+474.782+431.848+490.549C431.32+491.199+429.927+491.056+430.27+489.959C436.177+473.044+449.337+459.393+456.002+442.572C452.764+457.675+434.475+474.552+430.65+490.693C450.844+475.905+456.47+447.484+472.657+430.758C471.619+462.848+456.066+496.147+464.974+527.752C488.829+486.038+498.551+436.014+516.623+391.407C511.218+435.643+496.764+481.718+499.722+527.075C520.808+473.167+531.897+415.74+550.039+360.814C551.395+358.475+551.99+355.113+554.305+353.494C544.491+403.948+534.187+454.86+528.456+505.971C542.742+466.558+549.002+423.07+563.386+383.167C564.961+383.871+564.253+377.509+566.441+378.613C560.154+426.992+552.443+475.454+548.153+524.17C547.932+523.476+547.86+528.138+548.257+525.282C560.56+483.258+566.575+439.671+577.225+397.297C578.732+394.348+579.649+390.301+582.549+388.385C574.902+431.599+572.334+476.151+562.181+518.916C576.871+471.947+581.936+422.501+597.963+375.929C598.774+374.945+599.314+371.22+601.107+372.003C598.907+431.305+595.664+491.46+588.558+550.588C600.547+500.324+600.032+447.692+614.825+398.108C615.327+397.086+615.62+397.036+615.646+398.239C610.427+454.87+605.506+511.559+602.627+568.362C602.136+573.457+601.193+578.519+599.614+583.393C599.354+583.968+599.087+584.613+598.982+583.609C602.276+534.256+599.682+484.141+608.067+435.333C608.222+434.248+610.214+430.847+610.892+433.424C612.363+487.558+610.491+542.097+615.207+596.012C625.18+538.763+620.787+479.12+634.768+422.298C635.549+420.692+636.281+417.416+638.555+417.61C639.609+479.512+634.749+543.728+644.4+605.222C646.59+602.207+647.009+598.204+648.088+594.698C656.821+537.706+653.727+478.673+669.354+422.818C671.028+424.03+669.914+416.613+672.124+417.961C670.407+479.041+666.832+540.133+667.873+601.289C671.175+559.52+664.885+516.618+674.581+475.616C676.957+510.733+673.812+549.252+682.186+584.689C683.393+586.97+684.214+590.19+686.833+591.216C688.95+590.563+689.65+588.01+690.642+586.287C702.599+546.901+707.079+505.397+719.24+466.05C720.193+464.092+721.375+461.951+723.474+461.038C725.759+459.95+726.758+463.074+726.671+464.767C726.172+509.547+726.499+554.59+722.907+599.193C721.655+602.933+720.434+607.27+717.342+609.921C714.233+609.954+713.636+605.53+712.43+603.359C702.991+563.351+706.778+521.007+711.597+480.577C712.444+477.329+713.666+474.016+715.773+471.363C717.49+470.535+717.159+473.971+717.382+474.785C716.863+515.683+719.421+556.706+717.645+597.531C716.792+599.97+716.318+604.905+713.401+605.3C709.135+563.594+712.774+521.107+716.563+479.41C707.805+521.927+709.345+566.179+700.891+608.723C699.728+610.686+698.364+616.159+695.264+614.952C681.115+564.122+690.083+509.456+688.493+457.416C670.263+529.986+672.423+605.744+668.44+680.011C667.644+684.986+666.068+690.098+662.884+694.078C659.506+695.42+659.011+689.351+657.897+687.321C644.641+615.879+644.493+542.279+649.757+469.981C650.36+474.434+650.233+478.986+650.113+483.475C643.391+563.005+648.248+642.975+654.444+722.385C654.417+726.088+654.828+730.215+653.042+733.601C651.286+733.717+651.284+730.606+650.585+729.526C632.667+648.912+627.966+566.201+628.272+483.862C620.52+562.189+623.355+641.007+627.783+719.451C627.221+723.566+628.284+728.549+625.694+732.113C623.464+732.966+621.479+730.228+620.538+728.488C602.779+650.59+603.643+569.912+605.476+490.504C596.78+573.369+596.566+656.991+602.306+740.155C601.567+744.163+602.462+750.224+599.587+753.188C579.605+665.712+578.898+574.353+580.684+484.853C575.861+565.978+578.818+647.389+589.13+728.011C589.369+732.475+588.884+737.161+586.792+741.17C585.378+742.207+585.326+738.924+585.053+738.273C568.972+656.575+562.569+572.183+563.068+489.852C555.126+578.227+567.621+666.458+570.565+754.639C552.125+662.587+545.639+568.098+553.938+474.469C554.835+470.326+554.66+464.858+557.751+461.668C551.109+545.7+553.616+630.673+561.511+714.709C561.419+721.301+561.212+728.172+558.871+734.404C541.805+655.357+540.181+571.855+541.682+490.611C533.817+573.426+535.289+656.588+536.023+739.654C535.854+743.859+535.821+748.16+534.593+752.226C533.332+757.765+525.511+755.294+525.538+750.334C502.308+663.822+501.746+573.693+502.697+484.787C505.142+482.345+499.477+480.594+501.539+484.511C486.217+553.699+488.979+625.365+476.025+694.673C474.453+698.33+472.001+702.829+467.673+703.496C464.413+702.784+463.054+699.084+461.915+696.345C446.571+626.474+445.326+553.215+454.044+482.387C454.051+484.166+454.773+476.873+455.379+479.528C455.402+546.57+455.859+613.587+459.509+680.537C459.319+684.217+459.465+688.115+457.963+691.565C454.77+623.119+455.938+552.743+470.532+485.248C471.784+480.705+473.607+476.33+475.751+472.141C476.339+469.712+479.729+467.653+480.911+470.839C482.247+472.777+482.654+475.157+482.89+477.45C484.397+539.419+481.16+602.285+492.113+663.497C493.891+667.269+495.769+672.412+499.48+674.379C507.69+612.935+505.466+548.04+527.637+489.354C528.537+487.333+532.437+483.594+533.475+487.54C534.726+492.093+534.598+496.883+534.516+501.561C528.811+576.146+521.235+650.676+519.197+725.5C518.49+731.578+518.216+737.886+516.127+743.685C506.026+659.548+507.805+572.032+523.157+488.241C524.617+482.265+525.938+476.145+528.685+470.597C531.079+469.416+529.295+476.928+529.681+478.644C517.704+566.108+514.971+654.377+509.154+742.378C508.493+746.094+505.319+758.496+500.331+753.984C498.583+750.252+497.658+746.197+496.829+742.182C485.191+664.615+486.623+585.337+497.497+507.777C497.381+504.902+495.73+510.329+495.81+510.165C473.749+577.693+469.235+649.185+452.054+717.893C450.888+722.007+449.116+725.93+446.92+729.593C445.784+733.434+440.936+735.048+438.991+730.975C437.485+729.13+436.878+726.759+436.47+724.462C434.824+686.18+436.78+647.65+438.241+609.525C431.204+662.804+424.625+716.368+423.572+770.142C424.406+771.771+424.125+765.791+424.615+767.443C438.499+707.707+446.481+645.106+475.27+590.183C477.103+587.677+479.227+584.686+482.485+584.083C486.776+584.003+489.584+588.214+491.293+591.637C500.624+646.307+496.244+702.711+498.928+758.022C498.3+677.755+493.288+596.713+507.294+517.168C505.467+514.452+510.345+514.794+507.859+517.213C496.05+599.287+488.326+682.037+475.52+763.926C473.737+767.57+472.808+773.361+468.872+775.177C466.085+771.679+465.978+766.516+465.091+762.22C461.549+687.599+463.369+612.122+476.249+538.404C477.826+532.474+478.68+526.092+481.627+520.657C481.721+520.92+481.814+521.184+481.907+521.448C470.12+593.419+456.809+665.482+451.068+738.376C450.23+743.123+448.663+747.912+445.578+751.695C444.406+753.842+441.973+752.581+442.13+750.394C439.307+687.144+442.796+623.525+444.466+560.403C424.351+619.223+421.247+682.222+411.543+743.027C425.462+653.531+435.396+562.61+461.802+475.669C464.471+468.553+467.291+461.268+471.827+455.115C451.815+519.026+440.097+585.229+428.346+651.083C443.19+566.09+452.899+479.488+477.086+396.195C477.639+393.719+475.638+402.25+475.147+403.225C453.619+460.536+440.601+520.371+426.18+579.711C425.29+582.51+424.222+585.397+422.093+587.512C421.463+588.705+419.997+588.123+420.337+586.824C426.026+532.269+436.81+477.751+444.603+423.924C423.282+465.621+413.543+512.221+391.879+553.691C390.672+555.653+388.982+557.315+386.978+558.455C385.794+559.385+383.984+558.619+384.075+557.028C386.483+519.926+400.597+484.55+406.407+447.912C406.372+445.857+406.602+443.437+405.302+441.705C372.809+477.785+362.798+529.475+340.448+572.073C340.042+573.28+338.092+573.763+338.404+571.954C341.669+544.764+345.486+516.079+359.469+492.143C360.392+490.953+361.774+489.826+363.375+489.921C365.22+490.235+366.785+491.592+367.806+493.11C372.722+515.933+367.993+540.176+370.12+563.047C378.539+533.214+377.639+499.598+392.403+472.07C393.524+471.185+395.502+469.893+396.726+471.326C397.996+501.577+391.973+532.127+388.445+562.255C392.402+529.197+397.316+494.799+407.314+462.564C408.399+460.012+410.087+457.741+412.099+455.845C413.022+454.659+415.629+453.631+415.985+455.88C416.803+492.716+410.706+529.645+409.465+566.376C418.106+538.644+413.349+505.281+428.935+479.932C429.758+478.894+432.208+477.152+432.829+479.335C435.569+514.672+427.204+549.946+429.301+585.303C429.952+587.627+430.142+590.652+431.702+592.476C435.423+578.784+438.989+564.465+438.145+550.149C434.452+568.95+437.132+589.344+430.975+607.274C427.469+583.059+437.571+534.581+437.571+534.581Z" fill="#e5e5e5" stroke-linecap="round" fill-opacity="0" opacity="1" stroke-linejoin="round"/>
<path stroke="#ffffff" stroke-width="23.6494" d="M508.791+730.692C511.412+729.409+507.691+740.288+510.709+741.014C513.757+746.96+515.747+753.354+518.076+759.597C520.698+766.507+526.4+771.889+528.234+779.157C531.735+817.784+526.342+856.777+522.82+895.202C521.703+892.993+522.196+890.032+522.006+887.556C526.589+848.421+525.758+808.389+520.261+769.599C519.156+773.719+519.287+778.062+519.246+782.294C522.606+824.782+518.565+867.79+524.602+909.957C517.238+869.587+522.605+824.168+518.747+782.289C518.691+778.23+518.833+774.108+519.91+770.169C520.171+769.907+520.093+768.939+520.667+769.327C527.749+810.879+525.066+853.293+523.023+894.927C524.985+856.452+531.643+817.821+527.757+779.3C525.919+772.057+520.223+766.697+517.62+759.801C515.287+753.55+513.292+747.148+510.244+741.192C508.636+737.928+508.791+730.692+508.791+730.692Z" fill="#e5e5e5" stroke-linecap="round" fill-opacity="0" opacity="1" stroke-linejoin="round"/>
<path stroke="#ffffff" stroke-width="23.6494" d="M473.214+444.842C466.085+443.541+454.389+420.631+460.966+413.016C470.316+419.784+471.452+433.532+478.744+442.187C483.252+428.106+473.04+413.253+472.388+399.553C485.544+412.472+488.253+434.512+502.682+445.977C505.268+443.977+506.193+440.463+506.979+437.424C505.122+409.984+490.344+385.159+483.694+358.834C483.641+357.488+485.225+358.55+485.489+359.044C498.828+376.364+506.427+399.218+522.213+414.096C523.504+411.938+522.976+409.142+522.797+406.749C514.348+383.597+501.817+360.997+488.271+340.863C496.444+366.389+509.777+392.242+527.73+412.466C528.644+413.102+530.207+414.752+531.32+413.51C532.647+411.569+532.705+409.03+532.49+406.766C520.703+372.176+500.45+341.044+486.498+307.355C499.517+333.459+513.092+361.371+534.149+381.766C535.13+378.832+534.056+375.482+533.313+372.565C515.04+335.948+491.162+302.3+472.768+265.734C486.992+300.194+509.371+332.064+538.146+355.918C540.392+357.358+542.776+358.749+545.426+359.27C547.556+359.74+549.064+357.703+549.66+355.935C550.697+353.56+550.398+350.89+549.821+348.442C531.803+307.018+504.939+269.117+480.394+231.688C479.068+233.657+479.899+236.461+480.404+238.619C493.292+269.211+511.954+299.079+539.994+317.853C540.796+318.281+541.952+318.879+542.785+318.152C544.151+316.734+544.195+314.508+543.864+312.679C527.258+280.833+505.2+251.063+484.182+222.286C483.817+225.411+484.785+228.736+485.687+231.733C500.159+255.666+516.537+283.28+542.019+296.149C539.175+272.788+515.615+292.089+505.112+271.651C503.907+270.499+507.068+264.603+505.112+264.732C503.409+266.058+497.782+237.644+497.679+239.679C504.888+271.66+523.291+299.859+534.019+330.654C533.906+331.055+534.566+332.105+533.714+331.886C522.376+314.177+510.068+296.075+502.327+276.666C517.515+296.72+527.733+321.698+547.509+337.938C539.486+315.083+518.947+299.479+508.984+277.539C508.93+277.33+508.876+277.121+508.822+276.912C517.279+286.774+523.06+302.841+536.413+306.595C538.163+306.395+539.703+304.999+539.854+303.204C536.294+279.407+514.901+298.644+505.112+277.203C504.945+276.68+505.162+269.642+505.112+269.078C513.088+279.192+521.182+264.446+534.953+267.535C536.241+267.296+537.018+266.077+537.681+265.071C544.93+245.398+544.316+256.167+536.591+267.194C535.484+268.231+533.793+268.239+532.435+267.776C520.72+262.008+517.585+276.241+512+265.882C522.09+287.798+536.752+278.925+540.31+303.291C540.129+305.274+538.43+306.812+536.499+307.055C522.915+303.561+516.817+287.303+508.589+277.121C519.247+298.701+541.298+315.307+547.22+338.315C527.643+321.832+516.578+297.777+502.639+276.793C511.01+295.891+522.693+314.223+534.092+331.5C523.282+299.642+501.843+270.319+497.595+236.808C498.002+235.377+503.173+264.563+505.112+265.329C518.374+285.528+535.62+270.677+542.861+294.159C543.118+295.491+542.148+297.298+540.561+296.591C515.96+281.847+499.37+256.204+485.222+231.904C484.211+229.2+483.757+226.299+483.687+223.422C483.34+221.182+485.852+222.175+486.418+223.34C505.554+253.399+529.567+281.182+544.489+313.564C544.812+315.735+543.846+319.73+540.88+318.745C511.64+300.241+492.397+269.026+479.6+237.557C479.286+235.646+478.804+233.392+479.862+231.634C481.693+230.672+482.921+233.654+483.986+234.621C505.868+273.479+535.737+308.907+550.775+351.103C551.068+354.163+550.207+358.083+547.222+359.557C544.505+360.327+541.867+358.53+539.543+357.373C509.768+334.121+487.415+301.449+472.692+266.883C471.155+263.917+474.807+267.934+473.955+267.778C492.908+302.62+514.797+335.843+533.241+370.958C534.303+373.528+534.864+376.294+534.992+379.068C535.219+380.229+534.702+383.092+532.952+381.78C512.832+360.485+498.525+333.834+486.206+307.468C501.883+339.982+519.95+371.551+532.725+405.355C533.193+407.282+533.21+409.319+532.775+411.254C532.592+412.745+531.423+415+529.573+414.201C509.81+397.055+500.746+370.385+489.097+347.516C488.445+345.379+487.284+343.008+487.951+340.734C502.767+359.633+514.471+383.689+523.286+406.67C523.52+409.044+523.875+411.647+522.843+413.885C522.22+415.08+520.72+414.266+520.112+413.542C505.538+396.987+497.652+375.307+484.025+358.392C490.554+385.306+506.846+410.794+507.149+438.889C506.099+441.554+505.281+445.87+501.969+446.421C488.286+433.854+484.522+413.766+472.554+399.699C474.178+413.601+483.597+428.139+479.132+442.291C470.608+435.753+470.287+419.353+460.651+413.51C457.408+424.63+473.214+444.842+473.214+444.842Z" fill="#e5e5e5" stroke-linecap="round" fill-opacity="0" opacity="1" stroke-linejoin="round"/>
<path stroke="#ffffff" stroke-width="30.9865" d="M516.699+300.279C518.638+296.402+518.821+291.498+519.763+287.26C520.641+283.308+527.493+263.998+528.953+258.157C530.147+253.382+533.253+248.938+535.08+244.372C536.776+240.131+571.828+168.829+573.373+166.254C577.104+160.035+599.431+130.999+604.007+124.898C606.041+122.185+643.064+91.3931+648.427+87.3706C650.673+85.6858+712.251+62.4154+716.055+61.6546C727.969+59.2719+778.882+51.4489+819.516+56.3074C857.729+60.8762+879.394+65.6448+908.736+83.2498C944.07+104.45+958.575+110.93+983.582+161.73C1012.36+220.19+1000.4+302.679+998.424+312.533C995.829+325.511+989.677+358.971+975.07+407.605C960.021+457.708+937.17+503.387+930.711+512C927.135+516.768+906.713+558.797+897.427+574.274C893.635+580.593+873.559+614.332+868.994+621.94C864.253+629.843+858.034+638.321+852.145+645.682C851.243+646.809+820.324+685.927+816.15+690.101C805.229+701.022+796.027+712.633+783.984+722.268C777.606+727.37+739.936+767.14+737.053+771.945C731.629+780.985+668.141+840.521+659.915+847.103C651.295+853.998+645.383+864.089+636.939+870.844C629.374+876.896+598.357+904.926+590.222+911.435C582.507+917.606+576.52+925.153+568.778+931.347C564.437+934.819+541.11+948.675+535.846+949.728C524.759+951.945+529.314+939.525+526.655+932.879C525.388+929.71+519.881+896.937+521.294+888.459" fill="#e5e5e5" stroke-linecap="round" fill-opacity="0" opacity="1" stroke-linejoin="round"/>
<path stroke="#ffffff" stroke-width="38.8978" d="M531.675+944.713C523.606+947.403+506.553+936.518+502.148+932.113C497.324+927.289+424.408+867.475+422.429+865.496C417.862+860.929+377.399+823.896+369.612+816.108C368.559+815.056+322.201+766.144+311.654+757.356C302.53+749.752+241.213+676.295+240.573+675.227C235.736+667.165+196.703+606.535+191.27+597.48C190.439+596.095+159.107+543.444+152.766+533.931C145.633+523.232+115.003+445.4+112.326+437.368C108.173+424.909+97.6961+394.589+97.0086+392.182C93.1326+378.617+80.2929+304.009+79.3938+299.514C77.7152+291.12+78.4907+250.852+80.9597+238.507C82.6008+230.301+92.3122+188.97+93.9451+180.805C94.5243+177.91+111.119+146.702+113.857+143.278C118.482+137.497+139.682+113.516+142.265+110.287C144.548+107.433+186.844+79.9798+188.912+78.9462C194.533+76.1356+214.651+67.7247+218.78+66.6925C223.076+65.6184+248.76+59.8276+251.712+60.5656C254.619+61.2923+288.124+56.9728+298.429+59.0339C306.034+60.5548+332.82+69.7377+335.957+70.5217C340.984+71.7786+369.605+85.6089+380.363+96.3664C386.912+102.916+399.243+113.033+406.416+118.771C409.878+121.541+445.481+157.851+446.113+158.693C451.948+166.473+474.855+202.276+478.141+207.753C483.066+215.96+506.411+275.014+512+284.328C513.982+287.632+521.979+330.419+526.167+339.842" fill="#e5e5e5" stroke-linecap="round" fill-opacity="0" opacity="1" stroke-linejoin="round"/>
</g>
<g id="Layer 4" vectornator:layerName="Layer 4">
<path stroke="#ffb133" stroke-width="15.1505" d="M240.908+200.136C256.764+185.308+284.445+187.466+297.752+204.638C311.817+220.748+308.896+248.911+291.042+260.76C291.213+260.574+291.524+259.224+291.827+259.831C290.141+265.274+287.813+270.504+285.968+275.897C283.25+283.995+282.178+292.873+283.574+301.323C279.346+290.928+264.482+290.276+255.454+294.14C257.187+292.365+258.388+290.102+259.779+288.057C252.599+307.163+278.895+314.773+291.084+322.176C294.471+323.746+297.857+325.317+301.244+326.887C303.754+327.783+306.265+328.68+308.776+329.576C320.484+332.639+327.122+317.481+321.918+308.324C315.74+294.085+294.224+286.966+282.381+298.22C283.819+296.356+284.037+293.915+284.862+291.773C284.733+314.51+316.783+328.379+334.646+317.372C333.744+317.649+333.575+319.657+333.116+319.634C335.512+301.667+315.497+290.914+299.62+292.402C292.532+291.825+283.662+290.592+278.494+296.686C279.63+292.179+281.546+294.76+281.26+298.586C282.257+311.028+286.879+325.744+300.565+329.099C317.118+337.977+334.09+318.917+329.64+302.944C324.915+287.421+304.062+279.289+291.145+290.024C294.92+285.242+295.758+279.094+296.193+273.201C300.351+283.432+311.862+287.874+321.69+291.642C331.438+297.113+343.862+295.638+351.303+287.655C347.089+296.268+346.206+306.153+346.406+315.599C340.708+296.31+313.299+295.491+301.495+309.417C306.933+297.775+305.155+284.362+306.374+271.988C311.051+288.278+332.089+294.765+345.275+284.527C341.601+289.533+337.507+295.017+337.519+301.494C334.479+286.125+315.493+277.711+302.921+287.931C309.554+280.26+306.894+269.243+308+259.896C314.889+271.24+331.137+278.59+343.806+272.473C335.106+280.171+328.196+290.497+325.995+302.1C326.875+296.88+321.764+290.144+320.952+287.267C336.708+299.414+340.025+324.086+328.379+340.157C317.519+356.651+293.653+362.215+276.618+352.224C216.208+312.085+261.728+215.898+319.93+198.68C328.949+196.405+338.546+196.925+347.326+199.961C355.37+202.433+362.872+206.837+368.667+212.975C409.801+261.582+379.923+368.287+307.011+360.804C222.821+344.838+260.834+203.544+337.655+212.538C354.467+214.591+369.146+226.079+377.098+240.752C379.978+246.024+381.713+251.819+383.099+257.632C389.362+301.432+381.779+367.624+328.598+376.708C305.201+380.059+281.923+364.587+273.21+343.14C260.78+305.651+268.519+258.308+298.24+230.887C305.144+226.223+312.741+221.166+321.456+221.35C338.78+222.611+357.661+229.547+367.795+244.399C389.934+291.878+355.99+368.443+297.689+362.318C269.128+358.548+248.065+329.166+252.724+300.915C255.84+276.576+276.704+256.694+300.867+253.647C333.281+248.429+361.636+278.805+356.483+310.86C351.546+333.536+336.234+360.137+310.816+362.574C284.436+367.294+256.853+349.486+255.618+321.829C253.232+290.724+272.713+257.871+302.543+247.344C331.863+240.097+364.67+262.353+363.243+293.707C363.601+333.111+330.449+377.921+287.322+369.183C236.537+360.278+232.226+285.054+275.064+262.873C284.475+260.874+293.575+265.933+301.924+269.272C312.779+274.765+324.397+280.143+332.542+289.557C333.646+291.583+334.75+293.61+335.854+295.637C337.212+322.104+318.936+345.474+298.189+359.785C260.582+387.468+207.895+354.482+205.368+310.976C204.501+305.573+203.932+300.104+204.014+294.626C204.015+287.263+204.598+279.902+205.752+272.631C207.125+262.717+209.993+253.089+213.583+243.767C219.058+227.353+240.908+200.136+240.908+200.136Z" fill="#e5e5e5" stroke-linecap="round" fill-opacity="0" opacity="1" stroke-linejoin="round"/>
<path stroke="#ffb133" stroke-width="126.955" d="M756.55+377.766C758.02+380.879+741.871+379.999+741.463+385.045C735.535+390.477+735.101+400.612+740.124+406.774C751.273+421.921+770.44+406.725+774.591+393.35C784.334+379.167+773.116+356.483+755.103+359.575C739.326+362.099+728.457+380.463+734.355+395.473C738.657+411.076+759.781+412.344+768.435+399.455C771.147+396.862+773.693+394.093+776.01+391.141C778.153+388.419+780.082+385.53+781.798+382.521C790.17+358.552+785.582+381.04+778.572+388.532C773.328+395.549+767.354+402.493+759.546+406.714C751.865+411.849+741.294+408.177+736.513+400.859C726.38+386.213+735.528+364.307+752.287+359.631C768.176+354.487+783.588+372.331+777.371+387.458C773.459+399.801+762.242+417.639+747.065+412.748C727.734+405.097+756.55+377.766+756.55+377.766Z" fill="#e5e5e5" stroke-linecap="round" fill-opacity="0" opacity="1" stroke-linejoin="round"/>
<path stroke="#ffb133" stroke-width="129.233" d="M758.435+281.905C746.002+292.907+730.082+316.693+739.251+336.546C745.491+350.681+762.899+360.609+778.069+355.187C797.605+346.783+810.366+328.02+818.868+309.242C826.879+292.864+834.265+273.639+828.55+255.385C825.193+248.734+820.158+242.17+813.106+239.225C806.044+236.748+798.364+238.06+791.155+239.082C753.897+252.737+701.569+277.342+705.012+324.386C708.402+344.669+733.609+355.241+750.188+342.074C771.243+327.877+786.607+300.761+779.428+275.026C764.89+233.16+710.373+255.114+687.785+277.32C683.93+276.04+682.801+271.264+680.787+268.156C676.613+251.472+678.703+250.974+661.18+259.07C640.058+269.873+620.187+284.098+617.592+307.568C617.861+310.55+598.56+322.611+599.789+325.372C620.435+365.612+676.073+364.051+700.151+401.468C703.834+406.236+707.155+411.263+710.648+416.165C714.793+420.771+718.984+426.131+724.519+428.974C725.644+426.015+724.151+422.368+723.533+419.373C704.674+375.491+676.941+335.488+646.023+299.321C644.287+296.78+643.375+293.797+642.514+290.875C637.492+268.811+640.905+243.958+652.98+224.897C677.643+206.388+704.147+187.218+728.579+169.893C716.301+175.711+706.467+185.533+696.115+194.14C707.93+182.854+721.039+173.001+735.348+165.09C743.641+160.228+750.731+153.442+759.589+149.507C762.07+148.396+764.538+147.253+766.965+146.028C801.508+125.493+831.5+163.604+863.852+170.748C866.498+171.893+868.818+173.684+870.696+175.861C883.994+198.47+885.298+227.056+890.376+251.994C894.134+234.24+891.239+215.862+886.831+198.59C887.021+197.224+888.714+198.167+889.261+198.622C895.822+203.262+900.253+211.033+900.034+219.17C900.066+224.142+899.385+229.136+897.752+233.846C896.503+237.433+895.065+240.956+893.417+244.38C877.201+273.538+877.158+307.914+873.783+340.225C870.05+361.946+858.868+381.598+845.691+398.906C839.379+408.568+835.208+420+826.601+427.948C814.334+436.77+798.453+436.074+785.083+442.257C777.036+446.396+767.486+450.902+762.903+458.978C762.535+461.436+763.583+463.917+765.083+465.819C766.197+467.219+767.809+468.1+769.382+468.882C785.3+471.415+783.194+491.403+795.849+497.199C799.949+498.661+804.546+497.937+808.454+496.232C829.372+483.029+848.319+465.542+856.632+441.54C883.256+401.065+889.418+351.639+911.678+309.33C914.21+298.122+915.146+286.571+917.819+275.385C915.615+277.189+914.047+280.032+912.594+282.529C885.125+341.737+855.397+400.717+841.207+464.85C833.732+483.347+828.086+502.518+821.291+521.247C815.611+530.325+806.805+537.338+802.819+547.563C794.295+570.433+784.763+593.314+770.698+613.135C763.996+619.677+755.218+624.955+745.621+625.135C743.407+625.178+741.198+624.895+739.033+624.452C727.969+618.918+716.097+624.606+704.429+621.142C703.26+621.314+702.39+622.273+701.936+623.303C698.144+637.706+711.073+650.414+708.279+665.081C715.104+674.57+711.973+676.006+707.808+665.217C709.152+653.132+703.074+642.458+700.597+630.984C700.462+627.823+700.315+624.046+702.612+621.565C711.227+619.367+720.64+624.176+729.518+620.906C741.782+626.813+756.774+625.346+766.965+615.858C784.209+596.7+792.783+571.143+802.368+547.349C806.357+537.117+815.144+530.081+820.851+521.013C827.776+501.442+834.029+481.598+841.535+462.225C856.314+397.158+886.051+336.658+915.426+277.247C916.165+276.728+916.829+274.897+917.995+275.278C916.585+285.781+914.211+296.489+912.831+307.135C908.58+318.232+901.844+328.35+897.996+339.716C885.346+386.548+866.329+432.306+839.112+472.481C830.137+480.328+821.072+488.277+811.371+495.236C808.068+497.328+804.184+498.491+800.27+498.482C782.685+497.731+786.63+471.73+769.126+469.311C767.502+468.506+765.861+467.572+764.711+466.133C763.117+464.123+762.018+461.485+762.442+458.884C766.935+450.562+776.733+446.026+784.88+441.802C798.207+435.612+814.042+436.319+826.294+427.561C828.659+425.752+830.438+423.324+832.084+420.875C845.07+396.348+865.256+375.434+871.626+347.728C877.694+313.194+874.997+275.694+892.96+244.176C894.6+240.771+896.033+237.268+897.276+233.699C899.078+228.453+899.763+222.85+899.46+217.32C899.073+209.515+894.137+201.656+887.3+198.195C891.443+215.679+895.166+234.529+890.439+252.382C889.709+252.638+889.91+251.611+889.634+251.242C885.23+226.451+882.845+200.082+871.423+177.469C869.623+175.286+867.598+173.189+865.042+171.898C832.327+164.733+802.092+126.033+767.186+146.476C763.923+148.183+760.486+149.525+757.231+151.245C749.481+155.156+743.103+161.189+735.615+165.512C721.359+173.358+708.376+183.229+696.53+194.351C704.769+185.2+716.576+175.092+728.665+169.484C729.533+169.58+728.544+170.178+728.418+170.543C703.255+188.457+678.051+206.773+653.355+225.221C641.402+244.164+638.011+268.837+642.995+290.748C643.845+293.618+644.73+296.553+646.439+299.049C677.74+336.112+706.833+376.759+724.784+422.109C724.641+423.958+726.844+428.894+723.847+429.247C718.527+426.054+714.29+421.15+710.259+416.479C706.759+411.57+703.434+406.535+699.745+401.761C675.382+363.113+639.055+351.789+621.276+308.182C619.172+283.099+640.307+243.722+646.446+252.317C652.585+260.911+676.057+248.368+680.21+265.794C682.449+269.51+683.68+274.854+687.763+276.926C705.304+261.453+729.423+248.757+753.568+250.77C773.243+254.017+784.612+275.494+781.397+294.229C777.533+319.472+758.181+346.284+731.037+348.498C712.019+347.722+699.671+325.98+704.711+308.434C715.583+270.959+754.514+253.076+787.694+239.404C793.431+237.899+799.403+237.318+805.325+237.356C809.148+237.419+813.022+238.232+816.328+240.217C821.776+243.919+826.199+249.256+829.01+255.202C834.799+273.581+827.394+292.962+819.318+309.46C810.565+328.666+797.358+348.223+776.924+356.092C761.752+360.585+744.962+350.69+738.788+336.722C732.337+316.572+758.435+281.905+758.435+281.905Z" fill="#e5e5e5" stroke-linecap="round" fill-opacity="0" opacity="1" stroke-linejoin="round"/>
<path stroke="#ffb133" stroke-width="34.435" d="M573.673+817.265C572.548+814.463+583.835+818.425+584.322+819.274C586.589+822.756+589.32+828.931+592.122+821.543C592.213+821.373+592.303+821.203+592.393+821.033C588.671+826.13+584.004+831.383+583.216+837.87C583.583+838.751+584.784+838.375+585.455+838.225C593.846+834.793+596.652+821.624+594.15+814.084C583.782+813.364+581.979+829.18+579.415+836.249C589.126+829.46+587.858+815.806+589.391+805.489C575.572+820.304+576.873+842.87+572.337+861.524C570.916+864.748+567.077+865.6+565.276+868.513C564.291+870.11+563.049+872.054+563.223+873.953C570.469+868.15+574.673+858.147+573.578+848.982C561.631+854.564+557.149+871.423+555.203+883.347C580.07+856.085+606.199+828.438+635.221+805.004C627.507+818.605+616.434+831.056+607.025+843.9C607.226+843.635+607.427+843.37+607.628+843.105C633.224+808.615+671.55+786.255+696.237+750.853C699.393+747.073+703.066+743.778+706.414+740.176C707.19+739.44+707.793+738.499+708.762+737.991C699.134+757.012+681.376+770.642+666.176+785.197C665.835+785.253+665.051+786.156+665.191+785.294C675.236+770.942+691.021+759.666+702.871+748.317C683.832+759.832+666.966+777.239+643.36+778.938C640.459+779.694+637.679+780.907+635.145+782.509C635.079+782.797+633.837+783.053+634.499+783.361C642.51+780.669+653.464+776.082+657.255+768.766C655.567+766.609+652.63+765.605+649.953+765.584C647.141+765.667+644.451+766.593+641.707+767.112C622.334+775.565+603.445+757.417+584.269+763.975C562.551+777.947+567.854+809.831+567.609+832.153C567.42+821.218+565.99+810.042+566.525+798.971C566.427+804.189+565.874+810.306+565.567+815.101C567.724+802.465+560.41+785.003+570.869+775.426C577.898+771.681+584.371+777.994+590.353+780.811C598.856+784.903+608.967+787.692+614.82+795.639C615.556+796.255+615.882+798.191+614.363+797.868C597.265+792.113+585.149+755.832+564.328+771.644C563.897+771.892+563.275+771.656+563.157+771.16C559.692+760.583+585.522+765.508+565.229+765.636C563.569+766.939+563.194+769.429+563.631+771.372C584.878+754.752+597.537+792.02+615.132+797.482C606.815+784.907+589.485+782.127+577.094+774.864C575.048+774.576+572.94+774.968+571.085+775.859C560.986+785.436+568.29+802.618+566.005+815.1C565.953+810.451+564.641+803.365+567.025+798.971C566.383+810.185+568.228+821.342+567.733+832.528C567.125+832.681+567.645+831.439+567.299+831.267C566.973+809.201+562.664+778.641+583.008+764.019C602.38+755.91+621.892+775.298+641.608+766.623C644.385+766.097+647.107+765.159+649.955+765.092C652.58+765.068+655.249+766.088+657.164+767.884C657.705+768.452+658.006+769.299+657.775+770.073C651.463+776.197+642.733+782.512+633.99+783.378C635.929+781.418+638.517+780.225+641.024+779.173C665.411+777.126+683.209+759.909+702.957+747.907C692.308+760.291+675.631+770.902+665.615+785.334C665.358+786.109+666.143+785.098+666.361+785.06C680.746+769.779+698.634+756.885+708.437+737.963C704.841+742.666+700.524+746.744+696.614+751.18C671.351+786.562+633.736+810.003+606.737+843.773C615.851+830.823+626.639+818.531+634.901+805.175C606.951+829.549+580.192+856.014+555.803+883.511C555.27+883.879+554.488+883.41+554.561+882.767C557.16+870.477+561.129+855.551+572.515+848.574C573.16+848.376+574.083+848.615+574.203+849.407C574.753+858.165+570.927+870.396+562.773+873.82C562.666+871.79+563.824+869.886+564.875+868.226C566.629+865.3+570.45+864.472+571.903+861.311C576.111+842.71+575.483+821.289+588.113+805.782C588.424+805.462+589.46+804.803+589.741+805.608C588.472+815.955+589.556+829.508+579.996+836.327C579.546+836.699+578.591+836.356+578.885+835.628C582.061+828.176+583.588+812.428+594.368+813.706C597.517+821.536+594.127+837.562+583.831+838.79C583.118+838.641+582.653+837.858+582.812+837.15C584.019+830.902+588.119+825.527+592.17+820.816C592.126+821.027+592.083+821.238+592.039+821.449C587.542+833.008+584.909+813.785+576.715+817.54C575.701+817.448+573.673+817.265+573.673+817.265Z" fill="#e5e5e5" stroke-linecap="round" fill-opacity="0" opacity="1" stroke-linejoin="round"/>
<path stroke="#ffb133" stroke-width="19.0169" d="M486.315+484.38C487.896+485.756+481.038+485.057+481.363+486.03C474.007+489.529+466.877+493.51+459.418+496.817C467.614+494.106+474.164+487.959+481.954+484.552C468.182+493.451+452.786+499.462+438.24+506.764C437.458+507.69+438.419+509.22+439.64+508.788C444.249+508.291+448.816+507.358+453.417+506.758C478.173+498.912+504.452+499.325+529.838+503.67C558.584+503.833+586.812+509.038+615.308+511.682C617.134+511.528+618.32+509.609+617.05+508.039C615.492+505.3+613.683+502.653+611.437+500.429C584.246+482.128+564.318+455.051+536.49+437.441C529.72+431.444+525.2+422.794+517.447+418.109C514.798+417.766+512.705+420.008+510.73+421.405C492.535+443.421+472.768+465.174+459.346+490.544C458.494+492.597+457.844+494.756+456.789+496.707C473.551+475.498+489.327+451.315+510.181+434.526C511.202+434.724+511.919+435.866+511.499+436.859C501.057+454.213+488.881+470.63+477.259+487.235C491.797+472.999+503.765+453.797+517.578+437.921C518.149+437.337+518.641+436.614+519.365+436.208C506.69+453.307+494.257+471.527+487.768+491.99C487.155+493.445+488.614+493.458+489.47+492.83C505.658+480.085+518.191+462.727+533.192+449.014C520.142+463.602+504.327+478.968+497.814+497.277C499.113+497.659+500.549+497.403+501.786+496.91C518.242+486.282+529.939+469.235+545.447+457.764C535.78+469.758+520.122+480.567+516.795+495.934C517.523+496.723+518.595+497.338+519.703+497.141C535.475+491.21+547.224+477.837+559.213+466.617C549.154+474.318+533.8+484.526+533.607+498.054C547.657+496.804+557.131+482.325+568.805+475.465C562.713+481.525+550.015+488.032+549.498+498.494C559.685+502.414+570.057+491.55+579.56+488.455C579.911+488.341+580.249+488.183+580.615+488.125C576.343+490.746+571.708+492.922+567.675+495.939C571.972+499.417+582.347+491.263+583.539+500.315C583.964+501.473+585.345+501.933+585.82+502.936C582.05+503.922+588.128+501.383+589.385+500.6C576.892+504.068+582.336+498.844+589.444+500.946C588.807+502.059+582.73+504.011+585.475+502.931C583.017+501.713+582.431+498.809+581.289+496.641C576.823+495.031+571.924+498.91+567.602+496.77C568.646+492.406+576.7+490.646+580.476+487.846C571.157+492.427+559.986+502.539+549.292+499.019C548.728+488.25+561.587+481.465+568.883+475.144C568.72+475.446+568.424+475.637+568.199+475.888C557.357+483.585+547.205+497.71+533.345+498.428C532.598+484.921+549.09+472.603+559.632+466.624C547.215+477.845+534.775+494.601+517.703+497.253C516.845+496.777+515.909+496.003+515.932+494.927C521.693+480.256+534.185+468.744+545.232+458.092C530.04+470.527+518.107+487.084+501.417+497.582C500.111+497.907+498.431+498.34+497.294+497.379C503.788+478.73+519.646+463.234+532.957+448.717C518.479+463.672+505.354+482.948+487.695+493.576C491.361+472.807+506.909+452.648+519.031+436.277C505.333+453.46+492.887+472.155+477.379+487.749C486.628+470.759+500.874+454.516+510.866+437.166C511.25+436.52+511.283+435.557+510.519+435.175C509.513+434.514+508.478+435.564+507.707+436.116C489.023+454.9+473.137+476.417+456.57+497.017C456.227+496.431+457.094+495.623+457.136+494.986C469.494+466.808+491.753+443.919+511.122+420.433C513.062+419.089+515.25+417.045+517.821+417.685C525.679+422.659+530.307+431.412+537.315+437.499C565.304+455.319+585.54+482.444+612.783+501.085C614.6+503.992+618.845+507.159+617.671+510.9C616.825+511.872+615.482+512.322+614.213+512.243C586.398+509.284+558.84+504.416+530.767+504.261C504.719+499.796+477.806+499.426+452.41+507.478C447.73+507.693+443.154+509.467+438.482+509.152C437.462+508.766+437.179+507.261+437.873+506.461C452.604+499.458+467.4+492.176+482.042+484.854C474.289+488.502+467.503+495.226+459.119+497.03C467.695+492.152+486.315+484.38+486.315+484.38Z" fill="#e5e5e5" stroke-linecap="round" fill-opacity="0" opacity="1" stroke-linejoin="round"/>
<path stroke="#ffb133" stroke-width="15.6758" d="M462.019+829.857C464.69+827.339+464.363+843.358+467.147+842.587C474.968+856.821+482.932+871.46+492.103+884.745C480.14+864.441+460.142+849.426+447.66+829.144C455.653+843.136+464.614+857.254+475.974+868.727C471.25+842.81+455.425+819.876+448.698+794.266C449.067+791.684+452.28+796.221+452.899+796.97C465.61+824.215+478.43+851.514+490.413+879.119C485.189+849.072+470.204+816.113+470.983+783.615C471.313+782.811+472.13+783.788+472.294+784.152C478.221+798.09+477.072+814.805+483.737+828.334C484.783+827.517+485.26+826.138+485.578+824.889C486.133+803.849+482.2+783.124+478.778+762.454C481.59+782.896+484.494+803.406+488.73+823.58C489.392+804.766+486.366+785.549+483.945+766.914C482.396+798.238+486.722+829.857+485.406+861.144C486.548+827.426+491.646+792.829+485.843+759.258C484.162+765.999+487.985+772.79+489.586+779.251C489.575+767.295+481.838+756.232+474.624+747.273C473.765+746.703+472.651+746.744+471.697+747.018C461.447+757.501+469.136+774.709+470.99+787.439C470.798+775.973+465.205+763.217+457.204+755.186C450.395+766.917+459.106+782.679+460.503+795.424C455.146+780.877+447.748+767.013+440.273+753.58C440.884+773.972+455.206+792.084+457.18+811.954C443.323+797.464+434.293+777.744+421.977+761.707C423.948+776.185+435.059+787.87+438.134+801.897C425.876+792.853+420.089+775.465+407.576+765.765C406.546+765.715+406.745+767.293+406.837+767.969C412.791+777.032+418.384+788.051+427.268+794.279C430.276+780.393+415.27+765.866+408.523+755.358C413.904+778.332+431.925+796.558+444.308+816.322C437.32+794.722+419.96+777.018+407.696+758.308C420.627+787.069+443.365+810.855+456.862+839.161C430.145+813.104+406.266+782.941+380.114+757.073C379.398+758.248+379.78+759.785+380.178+761.012C394.523+789.168+418.874+810.449+436.011+836.466C406.218+807.99+375.444+776.032+349.532+742.555C348.482+740.94+345.657+737.764+346.18+736.574C364.728+755.869+380.606+778.409+402.316+794.374C403.42+794.928+404.123+793.551+404.182+792.645C388.973+766.726+367.173+744.208+350.354+718.962C350.782+718.868+350.969+719.442+351.317+719.571C372.005+740.63+389.1+768.416+416.311+781.269C417.426+780.356+417.107+778.548+416.717+777.333C403.586+756.536+386.684+737.608+369.943+719.937C368.555+721.397+369.551+723.707+370.449+725.165C378.515+737.63+387.117+749.888+397.268+760.74C387.491+753.767+378.44+736.586+370.582+726.356C369.39+724.549+367.619+721.306+369.797+719.58C387.152+736.507+403.829+756.432+417.183+777.17C417.635+778.523+417.87+780.342+416.793+781.463C415.776+782.189+414.452+781.509+413.438+781.128C387.861+765.745+370.536+740.553+350.315+719.29C368.785+742.634+387.031+766.372+404.299+790.604C404.95+791.922+404.815+793.829+403.561+794.741C380.425+781.216+364.886+755.715+345.715+736.773C372.591+772.82+404.547+804.678+436.143+836.53C417.623+811.003+393.953+788.888+379.495+760.491C379.172+759.285+378.792+756.573+380.686+756.635C406.496+783.153+430.899+812.593+457.019+838.81C441.73+812.334+422.49+788.145+408.146+761.078C408.044+760.188+406.898+758.669+407.647+757.875C420.9+775.443+434.638+793.257+444.427+813.053C444.534+814.002+445.406+816.035+444.199+816.528C431.292+797.329+413.761+778.57+408.184+755.848C408.054+755.279+408.689+754.381+409.26+755.013C416.054+766.876+430.822+780.075+427.792+794.473C418.015+790.204+413.011+777.094+406.481+768.558C406.226+767.575+406.069+766.24+406.897+765.484C420.238+773.655+425.985+791.616+437.921+801.78C433.984+788.134+424.101+776.62+421.598+762.567C421.49+762.148+421.768+761.08+422.405+761.578C434.595+777.768+443.958+796.219+456.997+811.779C454.145+791.855+440.253+773.875+440.029+753.561C447.962+765.288+456.392+780.831+460.21+795.53C457.938+782.719+451.085+768.086+456.009+755.42C456.525+754.811+457.457+754.528+458.159+755.006C465.463+763.586+470.799+775.077+471.654+786.399C471.975+786.534+471.229+788.554+470.847+787.272C468.206+774.789+460.598+755.954+472.04+746.431C482.749+751.12+488.757+767.3+490.071+778.661C490.136+779.098+489.544+779.797+489.206+779.171C487.389+772.919+483.528+765.866+485.489+759.319C486.222+758.458+486.673+760.045+486.705+760.571C491.581+793.702+487.559+827.799+485.625+860.889C484.76+862.857+484.698+858.957+484.774+858.899C487.064+828.332+480.411+796.31+484.29+766.646C486.619+785.303+490.803+805.71+488.595+823.736C483.743+805.053+481.743+785.296+478.772+766.095C478.776+764.869+478.147+763.538+478.476+762.349C483.74+782.684+486.152+803.944+486.063+824.983C485.732+826.282+485.255+827.719+484.138+828.551C475.592+816.557+478.421+797.216+471.427+783.525C471.089+783.662+471.408+784.74+471.255+785.035C471.954+815.87+483.294+845.284+490.545+874.97C490.65+876.478+491.57+878.398+490.832+879.774C475.764+851.819+466.187+820.016+449.1+793.595C455.792+819.043+470.761+841.816+476.508+867.435C476.752+868.272+476.02+869.641+475.094+868.743C464.265+856.866+454.491+843.225+447.344+829.012C461.019+848.368+480.459+864.262+492.277+884.551C492.754+885.175+491.65+885.444+491.589+884.788C480.358+867.35+462.019+829.857+462.019+829.857Z" fill="#e5e5e5" stroke-linecap="round" fill-opacity="0" opacity="1" stroke-linejoin="round"/>
<path stroke="#ffb133" stroke-width="15.6758" d="M442.809+780.463C441.755+782.986+438.279+773.314+436.952+773.515C433.724+769.225+424.959+767.718+423.634+774.308C426.575+786.353+445.339+776.144+444.522+766.764C440.704+755.071+419.494+761.284+421.103+772.876C424.126+779.467+434.714+773.179+434.618+767.549C432.99+761.492+424.857+757.845+419.335+760.887C417.843+761.837+415.843+763.266+416.347+765.309C419.303+768.645+425.08+772.706+416.797+767.397C413.927+764.043+417.885+760.368+421.13+759.543C427.06+758.244+435.329+762.365+435.063+769.089C433.473+775.495+420.311+780.204+420.32+770.61C422.359+760.022+440.209+755.395+444.905+766.068C447.602+777.41+422.548+787.626+423.632+772.644C429.689+763.917+442.809+780.463+442.809+780.463Z" fill="#e5e5e5" stroke-linecap="round" fill-opacity="0" opacity="1" stroke-linejoin="round"/>
<path stroke="#ffb133" stroke-width="43.6331" d="M324.517+629.547C328.278+630.813+316.999+647.248+324.902+650.608C332.857+652.217+338.545+644.216+343.695+639.487C342.102+647.382+333.366+653.9+333.396+662.288C341.444+667.566+349.198+656.54+357.72+657.854C365.746+664.94+352.596+692.023+360.197+663.854C360.093+661.968+359.844+659.647+358.15+658.49C349.479+656.732+341.819+667.906+333.423+662.975C331.691+654.684+341.013+647.647+343.596+639.911C338.936+644.889+332.651+652.913+324.677+651.03C318.469+645.595+324.517+629.547+324.517+629.547Z" fill="#e5e5e5" stroke-linecap="round" fill-opacity="0" opacity="1" stroke-linejoin="round"/>
<path stroke="#ffb133" stroke-width="43.6331" d="M330.767+648.883C340.535+657.858+327.769+684.677+337.472+695.125C338.468+695.191+339.483+694.698+339.995+693.831C342.04+684.162+344.764+672.026+338.071+663.581C336.612+662.758+335.034+664.096+333.96+665.003C325.78+677.389+332.857+699.833+348.894+700.712C356.703+701.402+361.63+682.416+351.416+688.477C345.457+694.124+343.342+703.631+347.975+710.48C347.719+713.428+345.471+718.136+350.858+716.423C373.147+701.93+387.806+676.366+388.451+649.4C392.487+625.478+396.853+600.357+390.095+576.632C389.145+574.939+387.485+573.771+385.739+573.004C361.234+567.233+335.93+571.78+311.27+566.769C309.176+567.142+306.733+567.959+305.896+570.127C305.014+572.203+304.79+574.667+305.708+576.769C316.987+587.513+335.577+577.113+347.732+586.329C354.057+602.187+340.195+618.679+330.805+630.669C343.2+625.933+348.828+611.075+361.607+607.008C371.167+611.137+360.18+623.781+361.723+630.994C374.039+631.033+384.642+609.919+376.573+600.101C371.059+594.96+362.89+599.99+356.95+601.566C343.664+607.701+331.658+616.14+319.465+624.143C312.046+631.054+301.427+639.593+315.972+626.05C331.378+615.956+346.342+604.108+364.157+598.625C367.514+597.85+371.286+596.53+374.631+598.047C386.851+606.411+376.047+624.896+366.531+631.215C355.746+634.572+364.483+619.886+364.692+615.003C365.294+612.509+365.337+608.947+362.718+607.576C349.496+610.235+343.883+626.177+331.515+630.926C331.099+631.147+330.289+630.853+330.641+630.273C339.736+618.326+352.653+602.955+347.774+587.139C336.382+576.107+310.108+590.883+304.639+573.311C304.743+570.657+306.032+567.739+308.779+566.941C310.208+566.36+311.767+566.087+313.308+566.243C337.959+572.502+364.344+565.113+388.267+573.885C390.349+575.364+391.459+577.822+392.05+580.235C397.173+614.064+390.439+648.535+382.229+681.301C375.134+693.906+365.612+705.634+354.705+715.265C352.428+716.473+348.742+718.453+346.593+716.042C348.82+707.689+340.52+698.873+348.724+690.802C350.155+687.659+356.078+684.231+357.887+688.697C358.493+694.941+353.169+702.355+346.368+701.133C331.19+697.574+324.123+673.783+335.66+663.223C336.914+662.479+338.568+662.903+339.33+664.146C344.741+673.201+342.951+685.066+340.022+694.571C339.266+695.424+338.017+695.78+336.918+695.508C327.297+682.583+330.767+648.883+330.767+648.883Z" fill="#e5e5e5" stroke-linecap="round" fill-opacity="0" opacity="1" stroke-linejoin="round"/>
<path stroke="#ffb133" stroke-width="43.6331" d="M230.825+496.798C232.153+494.916+232.376+502.935+233.114+502.448C235.928+511.199+238.672+519.974+241.704+528.653C262.59+578.766+275.998+634.75+314.218+675.282C316.816+678.673+319.289+682.234+320.92+686.204C321.63+689+318.178+685.031+317.708+684.214C305.887+654.447+286.907+627.923+267.406+602.806C275.885+631.124+295.271+655.312+309.021+681.435C310.066+682.327+308.243+683.018+307.999+681.979C302.426+677.272+298.72+670.845+294.342+665.095C259.394+604.391+225.813+542.726+200.663+477.189C218.232+513.782+230.524+556.137+249.667+593.283C249.415+591.166+249.049+589.02+248.149+587.069C224.261+549.829+207.752+508.705+196.441+466.037C214.547+515.928+237.062+565.008+269.326+607.424C270.238+608.357+271.739+609.735+273.101+608.742C275.51+606.748+276.85+603.582+277.144+600.509C272.737+553.149+259.38+505.267+256.663+458.496C258.665+461.201+259.346+464.618+260.236+467.794C270.408+523.032+295.383+573.728+311.958+626.887C300.773+576.551+293.913+523.397+274.585+475.435C272.925+477.988+273.281+481.884+272.817+484.903C276.299+525.448+286.838+566.459+301.684+604.052C303.466+600.808+303.911+596.863+304.353+593.214C305.299+543.779+293.528+494.515+295.749+445.257C301.402+471.573+302.903+499.654+311.421+525C313.291+525.814+315.268+524.366+316.656+523.216C327.554+503.811+328.221+480.048+338.166+460.126C330.399+478.121+323.87+497.158+311.944+512.938C314.642+511.803+316.716+509.314+318.97+507.451C340.863+480.904+369.556+461.302+391.005+434.539C425.59+408.599+458.08+370.802+454.92+324.826C456.836+314.233+461.201+304.184+462.465+293.451C462.722+294.871+462.437+290.712+462.746+291.725C463.856+315.711+459.71+339.83+450.652+361.987C450.274+363.981+449.992+366.135+450.703+368.091C451.388+371.642+456.19+372.698+458.334+369.829C473.015+342.966+465.876+311.163+467.717+281.961C467.191+277.402+466.147+272.911+464.793+268.531C461.039+259.039+454.158+251.129+448.681+242.583C436.835+210.829+410.004+188.904+391.126+161.688C384.868+153.866+375.923+148.938+368.02+143.042C361.3+137.72+366.809+138.117+369.362+143.535C375.79+147.786+382.208+152.138+387.903+157.362C408.286+185.666+436.204+209.124+449.108+242.325C468.996+262.422+469.828+290.228+468.106+316.661C468.726+334.795+468.086+355.141+458.096+370.753C456.904+371.77+455.234+372.225+453.697+371.88C451.464+371.343+450.285+369.009+449.884+366.926C449.593+364.76+449.94+362.555+450.511+360.463C459.794+338.844+462.997+315.011+462.37+291.587C463.143+303.075+457.026+313.683+455.413+324.906C458.559+370.991+426.012+408.898+391.342+434.909C367.691+462.893+338.427+485.503+313.647+512.539C313.051+512.749+312.592+513.53+311.888+513.284C322.744+496.712+330.037+478.136+337.876+460.008C329.576+480.677+327.62+503.986+317.002+523.564C315.474+524.868+313.227+526.395+311.178+525.37C302.265+500.316+300.848+471.115+295.399+445.571C295.412+494.968+305.125+543.865+304.849+593.264C304.433+596.915+303.983+600.792+302.095+604.015C298.738+604.048+298.797+597.465+296.888+595.135C286.595+558.153+273.177+520.968+272.493+482.253C273.194+480.036+272.552+476.518+274.684+475.064C294.937+521.881+299.84+574.956+312.499+624.462C312.971+628.666+311.384+626.498+311.065+623.928C292.962+572.266+270.34+521.976+259.756+467.931C258.804+464.905+258.388+461.231+256.284+458.798C261.206+506.73+273.261+553.946+277.47+601.83C276.691+604.799+275.319+609.042+271.807+609.507C269.563+609.039+268.275+606.887+266.827+605.323C236.151+563.088+213.482+515.483+196.158+466.373C209.106+507.369+224.216+550.072+248.603+586.864C249.403+588.771+250.041+590.848+249.967+592.933C249.48+594.458+248.201+592.043+247.913+591.56C230.246+554.514+216.768+513.604+200.551+477.245C227.247+542.582+259.743+605.215+295.552+665.973C299.942+671.26+303.32+678.28+308.975+681.986C294.911+655.812+275.11+631.245+267.089+602.67C289.243+627.521+306.168+657.068+320.343+686.909C320.77+685+316.641+679.645+314.977+677.103C269.767+626.914+230.825+496.798+230.825+496.798Z" fill="#e5e5e5" stroke-linecap="round" fill-opacity="0" opacity="1" stroke-linejoin="round"/>
<path stroke="#ffb133" stroke-width="43.6331" d="M308.38+168.571C306.001+166.768+319.975+160.175+313.653+155.806C289.227+148.639+259.261+153.666+239.831+170.984C239.16+171.801+237.913+172.893+238.535+174.08C239.442+175.42+241.088+176.025+242.562+176.517C262.409+177.671+281.258+169.277+300.37+165.164C304.021+164.462+307.713+164.002+311.372+163.348C313.442+163.018+315.519+162.738+317.607+162.55C333.001+163.394+343.714+141.657+335.988+129.735C331.538+125.48+325.43+123.549+320.368+120.148C314.278+115.632+308.932+109.703+301.463+107.414C254.04+98.5213+203.35+113.273+166.874+144.819C157.632+153.104+148.807+162.467+145.844+174.945C142.003+193.314+140.567+212.196+139.656+230.963C139.67+234.356+139.659+237.782+140.266+241.132C141.1+244.829+143.214+248.1+143.999+251.823C151.068+307.813+154.703+364.533+169.046+419.231C171.985+428.325+178.03+435.976+181.332+444.924C186.373+458.01+190.155+471.568+196.563+484.089C197.332+490.035+203.343+497.401+199.681+502.932C193.163+500.95+190.313+493.209+187.109+487.757C179.329+459.498+178.051+429.651+168.106+401.82C166.647+397.827+164.542+394.124+162.465+390.432C139.017+355.646+137.867+311.697+120.839+274.209C120.17+271.591+119.922+268.823+120.454+266.156C121.279+261.996+123.498+258.24+126.012+254.882C159.741+223.169+196.69+194.275+234.994+168.578C219.179+175.103+204.965+186.415+187.986+189.934C186.581+189.924+186.182+188.247+186.482+187.142C198.199+168.444+222.46+159.724+235.361+142.093C233.914+140.394+231.409+140.005+229.298+139.766C210.221+145.625+191.409+153.595+172.471+160.3C199.631+151.914+225.656+136.344+254.371+131.625C255.126+131.484+256.579+131.568+256.499+132.685C256.174+135.382+254.169+137.532+252.433+139.476C227.195+157.567+201.111+175.029+174.961+191.659C218.259+177.078+257.468+148.332+300.445+133.927C253.272+159.188+208.386+188.543+163.581+217.784C209.081+194.314+250.78+163.858+294.869+137.853C238.315+165.537+184.468+204.975+138.943+249.686C136.767+252.686+133.259+255.534+132.85+259.394C135.899+260.285+139.329+258.633+142.217+257.64C206.506+224.132+269.128+185.078+337.655+161.089C335.964+164.473+331.308+165.846+328.364+168.079C271.128+196.962+214.685+229.269+164.805+269.504C228.498+238.105+290.759+203.048+356.993+176.797C283.816+205.351+214.698+244.401+151.202+290.575C150.251+291.786+147.084+293.209+147.963+295.105C151.242+296.963+155.374+296.262+158.73+294.965C227.191+257.397+296.596+221.312+367.267+188.034C305.994+221.144+243.047+255.406+190.3+302.007C188.515+303.968+186.258+306.14+185.999+308.907C188.691+311.128+193.316+308.761+196.374+308.186C259.383+277.762+320.534+241.519+382.325+209.505C308.185+241.381+237.621+283.331+175.542+335.056C173.144+338.49+167.853+340.925+167.069+345.158C169.351+347.481+173.14+346.619+175.849+345.622C243.443+311.231+307.199+268.886+377.655+240.073C325.183+268.995+270.078+297.003+223.107+335.422C220.317+338.56+216.042+341.012+214.599+345.104C216.533+346.816+219.684+345.714+221.928+345.186C286.517+315.353+346.602+274.74+413.251+249.809C340.025+282.274+266.969+319.988+207.975+374.99C206.067+377.738+201.979+380.95+203.082+384.653C207.077+385.633+211.371+384.026+215.176+382.831C276.675+355.284+332.331+315.984+394.689+290.14C396.866+289.752+399.219+287.822+401.435+288.431C349.594+327.894+283.802+353.936+243.489+407.093C242.428+410.18+245.62+412.939+248.406+413.439C252.096+413.939+255.816+413.081+259.362+412.13C318.801+391.377+369.352+351.819+426.708+326.442C427.594+326.332+429.88+324.889+430.254+326.4C429.356+328.81+427.352+330.695+425.443+332.332C380.41+362.203+333.205+390.541+295.259+429.493C293.941+431.652+292.01+434.261+292.763+436.909C294.434+438.905+297.526+438.136+299.783+437.941C338.058+423.02+371.587+397.65+406.814+376.826C407.378+376.616+407.6+376.608+407.047+377.064C387.366+391.249+364.151+402.696+350.284+423.275C349.401+425.201+349.242+427.395+349.704+429.451C350.211+431.733+352.897+432.256+354.883+432.084C357.584+432.042+360.218+431.228+362.583+429.95C392.713+410.639+421.241+386.57+440.021+355.744C440.919+353.983+441.553+352.037+441.5+350.04C441.336+346.467+437.563+344.058+434.174+344.708C401.193+356.444+366.655+380.093+353.421+413.408C355.438+415.389+358.89+414.225+360.832+412.668C392.207+378.705+430.777+338.264+429.662+289.124C428.695+286.777+427.455+284.108+424.882+283.195C405.558+283.298+393.027+304.45+384.439+319.385C383.305+321.973+382.27+324.606+381.404+327.296C372.388+341.251+387.317+359.611+401.424+347.99C426.919+325.755+439.72+288.853+436.763+255.497C427.998+224.923+386.108+228.222+371.132+252.078C367.924+255.852+365.132+259.979+362.823+264.362C357.298+274.636+352.973+288.258+358.999+299.218C361.239+302.535+364.829+305.147+368.753+306.025C372.354+306.439+376.033+305.325+379.155+303.577C403.667+281.296+416.784+246.972+422.251+214.858C422.25+211.784+422.306+208.432+420.583+205.742C417.074+201.579+411.052+200.341+405.838+200.949C400.368+201.807+395.213+204.042+390.306+206.529C323.71+246.483+267.383+309.702+245.063+384.946C236.507+398.814+226.354+411.99+220.93+427.553C218.825+433.398+217.691+439.643+218.023+445.864C221.739+469.871+255.426+456.158+256.56+437.446C254.947+413.119+237.245+392.584+222.436+374.381C220.447+373.071+218.217+371.457+215.72+371.661C211.96+372.731+210.198+376.89+208.335+379.956C200.558+405.649+207.986+437.897+228.454+455.921C231.002+457.279+234.173+458.901+237.044+457.533C240.723+455.028+241.096+449.869+241.62+445.841C241.696+441.821+240.962+437.834+240.174+433.908C228.211+401.442+225.204+360.69+195.672+338.465C193.085+337.109+189.14+335.927+187.367+339.165C170.797+376.683+179.91+438.101+226.012+448.544C258.5+449.995+273.241+408.418+265.759+381.669C264.878+379.938+263.007+378.075+260.907+379.05C258.348+380.219+256.237+382.299+254.687+384.62C243.415+411.026+258.881+440.477+279.232+457.782C286.367+467.875+283.152+469.693+278.83+458.075C270.648+450.408+263.001+442.096+257.745+432.049C252.072+421.396+249.702+409.11+250.756+397.102C249.212+389.684+259.581+371.256+266.583+382.175C269.682+397.972+267.917+415.786+259.119+429.636C251.032+444.567+232.65+454.502+216.28+446.626C177.928+427.839+172.417+376.389+186.088+340.282C187.332+336.937+191.176+335.59+194.235+337.323C225.336+357.537+227.772+399.559+240.116+431.509C241.146+435.604+241.852+439.789+242.116+444.005C242.163+448.301+241.407+452.895+238.973+456.516C237.557+458.472+234.873+458.936+232.666+458.259C207.098+443.959+200.283+406.099+207.89+379.742C209.613+376.675+211.425+373.143+214.687+371.472C217.255+370.411+219.784+372.197+221.94+373.408C237.609+391.833+256.392+413.59+256.884+438.902C255.885+443.729+252.693+447.82+249.149+451.109C240.336+465.743+213.533+459.872+217.544+441.162C219.412+419.7+233.812+402.422+244.618+384.722C266.97+309.377+323.396+246.082+390.083+206.083C395.53+203.413+401.27+200.72+407.418+200.348C412.311+200.085+417.786+201.575+420.99+205.473C422.775+208.241+422.756+211.695+422.748+214.867C417.518+246.923+404.119+280.493+380.47+303.337C377.342+305.443+373.549+306.642+369.775+306.619C365.584+306.329+361.944+303.544+359.258+300.495C339.848+260.852+407.968+204.031+435.046+249.772C436.739+252.795+437.642+256.21+437.973+259.644C438.098+292.515+426.529+329.584+399.325+349.823C385.911+358.302+373.52+342.272+380.201+329.589C386.892+309.805+401.153+286.671+423.03+282.338C424.721+282.416+426.382+283.147+427.529+284.402C429.258+286.519+430.512+289.128+430.795+291.868C428.963+339.152+393.826+377.37+363.748+410.8C362.079+412.348+360.328+414.004+358.081+414.645C356.177+415.307+352.496+414.935+352.832+412.175C368.158+379.396+401.339+354.529+435.405+344.2C438.187+344.048+440.835+345.916+441.71+348.54C442.32+350.452+441.855+352.549+441.167+354.374C422.535+386.578+392.737+411.535+361.479+431.036C358.784+432.292+355.728+432.835+352.772+432.469C348.3+431.951+348.345+426.219+349.832+423.077C363.827+402.272+387.268+390.633+407.24+376.414C374.091+398.421+340.357+420.135+304.391+437.198C301.448+438.257+298.294+438.959+295.152+438.625C292.664+438.682+291.251+435.916+292.463+433.834C293.287+431.277+294.818+429.016+296.609+427.037C334.79+389.545+380.615+361.152+425.121+331.956C426.991+330.331+428.97+328.432+430.03+326.184C369.34+350.286+317.53+394.997+254.431+413.759C251.241+414.197+247.461+414.592+244.864+412.247C242.979+410.79+242.143+408.099+243.397+405.957C284.502+353.722+348.907+327.064+401.143+288.279C335.223+313.602+277.382+356.684+212.421+384.267C209.67+384.482+203.408+387.496+202.304+383.51C202.797+379.996+205.455+377.3+207.598+374.665C266.502+319.8+340.189+281.313+412.965+249.616C347.517+276.457+287.294+314.38+223.688+345.086C221.125+346.036+218.282+346.898+215.543+346.22C213.17+345.704+214.668+342.995+215.8+341.998C263.131+298.929+322+270.24+377.572+239.976C307.175+270.29+242.641+312.282+174.409+346.605C172.008+347.402+166.71+347.722+166.616+344.209C169.471+339.498+174.149+336.067+177.962+332.148C239.775+282.012+308.933+240.016+382.256+209.197C321.742+242.853+259.215+277.71+196.52+308.661C193.219+309.479+189.111+311.271+185.872+309.506C184.828+306.966+187.602+304.561+188.974+302.664C242.118+255.889+304.293+220.142+367.338+188.41C296.164+222.029+226.356+258.856+157.056+296.062C154.428+297.328+144.805+297.273+148.362+292.509C211.806+244.862+282.156+205.761+356.007+176.73C358.364+175.427+355.462+178.072+355.458+177.426C290.918+204.619+229.022+237.514+166.794+269.326C165.707+270.129+163.38+269.552+165.151+268.176C217.921+225.715+278.366+194.264+337.2+161.549C338.095+159.863+333.676+162.761+334.426+161.844C268.694+187.963+207.013+223.136+145.017+256.931C141.48+258.557+137.712+260.236+133.731+260.077C130.308+258.956+134.677+254.639+135.597+252.977C181.328+205.809+236.069+166.435+294.982+137.336C254.588+164.393+212.492+190.357+170.471+215.306C169.252+215.588+163.793+219.159+163.958+217.622C207.838+187.397+253.227+158.903+300.064+133.713C257.403+150.482+218.516+176.46+175.653+192.114C174.611+192.322+174.5+191.099+175.297+190.694C201.458+174.497+226.982+156.915+252.078+139.13C253.764+137.189+255.861+135.026+256.143+132.372C226.595+135.04+200.746+153.455+172.059+160.278C190.699+152.855+210.151+145.3+229.312+139.275C231.589+139.53+234.413+139.943+235.757+142.024C223.305+159.13+201.292+168.571+187.593+185.204C187.086+186.412+186.468+187.995+187.229+189.218C204.532+187.057+218.887+173.686+235.326+168.401C235.697+168.862+234.807+169.016+234.671+169.353C196.471+195.129+159.967+223.647+126.405+255.188C123.94+258.485+121.753+262.166+120.94+266.248C120.424+268.841+120.669+271.531+121.317+274.076C133.094+303.122+139.75+334.135+148.849+364.225C150.303+368.024+151.999+371.735+153.983+375.288C177.756+407.386+177.696+448.653+186.918+485.902C189.928+491.844+193.135+500.323+199.863+502.438C201.714+495.891+196.914+489.283+195.59+482.93C189.493+471.531+186.223+459.003+181.594+446.999C178.33+437.292+171.773+429.117+168.575+419.398C154.22+364.684+150.574+307.947+143.514+251.938C142.723+248.213+140.603+244.942+139.779+241.238C139.165+237.852+139.169+234.388+139.156+230.958C140.893+209.569+140.548+187.267+148.278+167.01C149.751+163.826+151.359+160.674+153.42+157.824C189.672+116.776+248.006+96.905+301.63+106.945C313.981+114.685+327.67+122.18+338.239+132.078C341.706+140.888+335.692+150.881+331.076+158.201C329.289+159.882+327.046+161.032+324.686+161.667C295.959+162.984+268.184+180.346+239.655+175.752C238.444+175.19+237.423+173.675+238.207+172.373C257.005+153.084+289.812+147.405+314.492+156.013C316.975+160.972+308.38+168.571+308.38+168.571Z" fill="#e5e5e5" stroke-linecap="round" fill-opacity="0" opacity="1" stroke-linejoin="round"/>
<path stroke="#ffb133" stroke-width="4.65528" d="M205.277+501.862C208.558+512.413+218.764+523.084+215.121+533.516C212.27+541.681+208.561+505.418+202.048+511.107C193.985+518.15+214.123+539.455+204.079+543.161C194.398+546.733+199.353+523.067+196.548+513.137C194.501+505.892+209.248+533.984+201.803+535.103C193.86+536.297+197.195+517.572+189.938+514.131C183.418+511.04+197.975+526.641+199.014+533.781C199.751+538.847+190.882+515.621+190.899+520.74C190.938+532.493+219.342+542.961+208.113+548.92C196.474+555.097+190.313+532.418+190.669+520.414C190.828+515.031+199.986+539.543+199.013+534.247C197.671+526.939+182.237+512.552+189.507+514.087C197.425+515.758+194.057+536.252+202.034+534.885C209.487+533.608+194.408+505.619+196.476+512.892C199.331+522.927+194.598+546.768+204.392+543.174C214.472+539.476+193.339+518.279+201.332+511.111C209.407+503.868+211.902+541.5+215.426+533.447C219.859+523.316+205.277+501.862+205.277+501.862Z" fill="#e5e5e5" stroke-linecap="round" fill-opacity="0" opacity="1" stroke-linejoin="round"/>
<path stroke="#ffb133" stroke-width="23.6494" d="M327.96+675.911C329.692+675.138+326.632+680.135+327.627+680.321C328.395+688.884+328.101+699.249+333.803+706.06C337.612+703.364+334.842+693.904+329.943+693.209C323.604+696.193+324.551+706.576+329.675+710.476C329.901+710.624+330.447+711.307+330.634+710.749C330.97+702.176+313.473+698.992+322.371+710.522C322.76+710.886+323.325+711.508+323.911+711.153C328.942+703.755+328.744+710.151+323.09+711.627C320.365+709.827+319.095+705.564+320.044+702.543C324.105+699.818+334.525+708.904+329.752+711.139C324.105+707.186+323.045+696.846+329.144+692.943C335.153+691.768+338.955+704.758+333.491+706.473C327.348+698.203+327.96+675.911+327.96+675.911Z" fill="#e5e5e5" stroke-linecap="round" fill-opacity="0" opacity="1" stroke-linejoin="round"/>
<path stroke="#ffb133" stroke-width="23.6494" d="M452.176+843.395C454.275+843.231+449.359+848.427+448.213+846.789C444.953+844.004+443.863+839.312+442.274+835.55C452.108+836.336+450.698+838.226+442.746+836.026C444.357+839.604+452.176+843.395+452.176+843.395Z" fill="#e5e5e5" stroke-linecap="round" fill-opacity="0" opacity="1" stroke-linejoin="round"/>
<path stroke="#ffb133" stroke-width="23.6494" d="M557.57+844.042C558.136+840.226+559.269+836.453+559.269+832.595C559.269+828.738+557.57+844.042+557.57+844.042Z" fill="#e5e5e5" stroke-linecap="round" fill-opacity="0" opacity="1" stroke-linejoin="round"/>
<path stroke="#ffb133" stroke-width="23.6494" d="M722.305+171.074C721.34+174.492+710.662+161.949+707.196+165.586C706.476+165.587+705.756+165.587+705.036+165.587C660.091+175.492+629.029+213.316+592.058+237.725C590.559+235.834+592.766+232.849+593.34+230.852C615.469+202.318+646.431+182.355+674.709+160.416C675.895+158.976+678.427+157.755+678.334+155.65C675.768+153.275+671.67+153.614+668.398+153.718C625.696+161.335+610.352+195.419+585.669+230.216C582.366+235.355+583.902+245.786+600.403+244.336C616.904+242.885+585.155+200.3+602.279+182.986C588.484+199.532+591.546+227.226+581.986+248.633C582.072+248.357+594.791+248.295+594.878+248.019C597.298+243.264+596.041+218.951+598.561+214.254C622.607+178.858+624.229+161.963+666.707+153.372C670.564+153.053+675.058+152.616+678.375+154.993C679.44+156.151+678.195+157.659+677.393+158.529C649.218+181.358+617.868+201.164+594.667+229.501C593.269+231.884+592.092+234.571+591.886+237.346C629.22+212.75+661.055+173.066+707.221+165.094C712.827+165.202+722.305+171.074+722.305+171.074Z" fill="#e5e5e5" stroke-linecap="round" fill-opacity="0" opacity="1" stroke-linejoin="round"/>
<path stroke="#ffb133" stroke-width="23.6494" d="M613.386+195.27C610.554+192.377+628.403+181.777+628.652+178.385C646.354+155.313+672.475+141.958+698.499+130.525C701.68+128.637+705.381+126.911+707.515+123.786C704.691+123.018+701.398+123.997+698.598+124.762C667.333+139.245+639.243+160+613.059+182.261C639.415+161.541+663.639+137.087+692.819+120.575C690.735+119.682+688.288+120.09+686.175+120.718C653.656+138.556+624.606+162.359+595.048+184.649C594.001+186.713+593.556+183.817+594.928+184.183C627.977+152.557+667.568+128.134+708.331+107.634C710.872+106.677+713.734+106.308+716.384+107.017C718.306+107.536+716.972+109.678+715.909+110.338C691.982+123.034+667.915+144.587+648.28+160.531C668.301+142.392+689.14+124.753+713.069+111.985C714.304+110.741+716.817+109.743+717.017+107.861C714.832+106.655+712.018+107.138+709.688+107.705C668.434+127.815+628.85+152.826+595.368+184.32C595.171+183.992+593.342+186.535+595.248+184.499C623.02+161.61+652.285+140.318+682.951+121.504C685.305+120.371+687.876+119.456+690.527+119.594C691.342+119.523+693.968+120.014+692.688+121.268C663.382+137.662+639.633+162.533+613.017+182.59C638.828+158.769+668.41+137.754+700.647+123.665C702.448+123.644+707.232+121.717+707.687+124.306C705.509+127.388+701.916+129.096+698.742+130.961C664.374+143.644+613.386+195.27+613.386+195.27Z" fill="#e5e5e5" stroke-linecap="round" fill-opacity="0" opacity="1" stroke-linejoin="round"/>
<path stroke="#ffb133" stroke-width="23.6494" d="M156.916+360.929C158.385+375.328+165.947+390.411+161.323+404.126C158.601+412.197+158.274+378.822+150.089+381.176C141.842+383.548+158.588+401.586+151.819+406.859C145.901+411.469+151.772+384.315+144.385+385.619C136.402+387.028+137.994+407.325+145.642+409.239C153.245+411.141+158.91+409.02+158.395+413.41C157.888+417.741+152.462+411.443+145.273+409.136C137.863+406.758+136.491+386.578+144.817+385.795C152.111+385.108+146.367+411.267+151.99+406.57C158.529+401.107+142.257+383.225+150.495+381.051C158.68+378.891+158.313+412.286+160.886+404.222C165.291+390.416+156.916+360.929+156.916+360.929Z" fill="#e5e5e5" stroke-linecap="round" fill-opacity="0" opacity="1" stroke-linejoin="round"/>
<path stroke="#ffb133" stroke-width="23.6494" d="M877.524+529.831C885.778+516.637+916.204+497.208+902.284+490.248C888.364+483.288+877.524+529.831+877.524+529.831Z" fill="#e5e5e5" stroke-linecap="round" fill-opacity="0" opacity="1" stroke-linejoin="round"/>
</g>
<g id="Layer 1" vectornator:layerName="Layer 1">
<path stroke="#000000" stroke-width="23.6494" d="M540.438+916.955C539.963+893.43+540.283+817.992+542.489+765.046C543.294+745.718+553.519+742.985+601.317+744.456C649.116+745.927+661.801+743.871+674.24+743.074C687.453+742.227+679.039+735.642+670.044+726.208C658.991+714.616+646.713+701.841+646.065+694.451C642.846+657.758+641.081+612.685+641.081+581.477C641.081+553.346+720.853+555.596+746.918+552.528C775.223+549.196+683.677+476.051+682.207+476.051C680.736+476.051+646.909+439.138+599.111+403.986C588.915+396.487+543.959+361.335+542.489+351.04C538.514+323.216+558.657+228.374+586.283+190.312C613.492+152.824+639.381+122.711+681.277+101.474C729.198+77.1823+809.119+70.854+877.642+96.67C950.191+124.003+984.35+198.069+978.663+286.37C972.596+380.588+922.44+491.066+867.219+580.06C807.838+675.759+745.825+725.373+721.15+760.318C711.066+774.598+541.923+917.661+541.923+917.661" fill="#e5e5e5" stroke-linecap="round" fill-opacity="0" opacity="1" stroke-linejoin="round"/>
</g>
<g id="Layer 1 copy" vectornator:layerName="Layer 1 copy">
<path stroke="#000000" stroke-width="23.6494" d="M505.099+914.375C505.099+904.615+506.583+871.673+505.112+815.05C503.641+758.428+504.278+741.673+479.983+740.779C445.984+739.528+375.377+752.282+390.429+727.355C409.395+695.947+412.33+691.51+412.33+691.51C412.33+691.51+429.043+550.936+396.153+550.322C333.671+549.156+316.266+555.863+339.818+528.091C376.495+484.84+495.962+398.566+492.279+341.347C491.425+328.084+490.514+314.886+489.543+301.771C483.659+222.32+416.397+146.85+351.611+104.011C310.463+76.8032+251.325+73.8748+190.938+101.07C127.245+129.754+99.8033+203.262+106.206+290.993C113.088+385.287+158.055+495.98+208.868+584.15C263.316+678.631+332.434+734.284+354.973+768.723C364.183+782.797+503.793+915.111+503.793+915.111" fill="#e5e5e5" stroke-linecap="round" fill-opacity="0" opacity="1" stroke-linejoin="round"/>
</g>
<g id="Layer 3" vectornator:layerName="Layer 3">
<path stroke="#000000" stroke-width="15.1505" d="M505.721+411.339L495.365+424.567L488.072+433.4L441.745+490.022L430.714+501.788C430.714+501.788+427.957+506.752+425.567+510.612C423.177+514.473+419.08+515.156+421.155+517.231C423.525+519.601+435.127+517.231+435.127+517.231L470.424+516.495L542.489+519.437C542.489+519.437+554.663+518.688+568.226+519.437C581.789+520.185+595.087+522.417+608.671+520.907C616.633+520.023+618.79+520.698+630.601+519.517C643.975+518.179+632.175+516.652+627.76+507.982C625.976+504.48+600.344+478.06+600.344+478.06C600.344+478.06+575.611+453.766+574.467+452.623C567.483+445.638+516.792+403.504+515.962+403.504C513.864+403.504+505.721+411.339+505.721+411.339Z" fill="#e5e5e5" stroke-linecap="round" fill-opacity="0" opacity="1" stroke-linejoin="round"/>
<path stroke="#000000" stroke-width="20.2027" d="M473.271+561.386L473.619+576.659L473.966+594.115L474.314+656.664L474.488+685.756L474.488+696.666L474.836+697.393" fill="#000000" stroke-linecap="round" fill-opacity="0" opacity="1" stroke-linejoin="round"/>
<path stroke="#000000" stroke-width="19.9028" d="M528.615+564.154C528.615+572.422+528.626+580.565+529.089+588.846C529.443+595.179+529.148+600.567+529.536+606.685C529.77+610.39+529.407+617.463+529.641+621.168C530.507+634.83+529.56+632.13+530.168+659.953C530.777+687.777+530.984+681.075+530.984+692.104C530.984+694.877+531.458+700.335+531.458+700.335" fill="#e5e5e5" stroke-linecap="round" fill-opacity="0" opacity="1" stroke-linejoin="round"/>
<path stroke="#000000" stroke-width="20.5047" d="M582.068+563.121C582.068+577.737+583.425+592.473+583.878+606.414C584.33+620.356+584.43+620.743+584.43+620.743L586.894+670.253C586.894+670.253+588.1+686.996+588.1+695.202C588.1+699.029+588.187+701.875+588.187+701.875" fill="#e5e5e5" stroke-linecap="round" fill-opacity="0" opacity="1" stroke-linejoin="round"/>
</g>
<g id="Layer 5" vectornator:layerName="Layer 5">
<path stroke="#ffb133" stroke-width="9.54963" d="M472.943+561.446C475.156+604.005+474.06+652.806+475.965+695.2C473.166+650.813+472.943+561.446+472.943+561.446Z" fill="#e5e5e5" stroke-linecap="round" fill-opacity="0" opacity="1" stroke-linejoin="round"/>
<path stroke="#ffb133" stroke-width="9.14146" d="M528.768+563.764C528.234+607.686+531.369+655.76+532.5+700.215C530.523+677.646+529.418+654.935+530.488+632.155C529.499+609.357+528.768+563.764+528.768+563.764Z" fill="#e5e5e5" stroke-linecap="round" fill-opacity="0" opacity="1" stroke-linejoin="round"/>
<path stroke="#ffb133" stroke-width="4.65528" d="M581.278+563.619C583.558+608.028+581.763+656.894+589.156+701.427C580.833+656.011+581.278+563.619+581.278+563.619Z" fill="#e5e5e5" stroke-linecap="round" fill-opacity="0" opacity="1" stroke-linejoin="round"/>
<path stroke="#ffb133" stroke-width="8.94076" d="M581.155+565.754C582.601+564.157+581.715+571.189+582.549+571.618C583.307+613.766+588.113+657.151+589.866+698.559C586.351+654.43+581.155+565.754+581.155+565.754Z" fill="#e5e5e5" stroke-linecap="round" fill-opacity="0" opacity="1" stroke-linejoin="round"/>
</g>
<g id="Layer 6" vectornator:layerName="Layer 6">
<path stroke="#000000" stroke-width="4.79966" d="M332.055+522.615L328.296+532.177L338.498+532.95C338.498+532.95+354.34+553.046+347.023+559.332L298.766+560.397L332.055+522.615Z" fill="#e5e5e5" stroke-linecap="round" fill-opacity="0" opacity="1" stroke-linejoin="round"/>
<path stroke="#000000" stroke-width="4.79966" d="M729.859+563.29L743.478+550.694L733.376+507.991L787.702+557.894L729.859+563.29Z" fill="#e5e5e5" stroke-linecap="round" fill-opacity="0" opacity="1" stroke-linejoin="round"/>
<path stroke="#000000" stroke-width="4.65528" d="M440.997+483.225L423.953+508.398L434.121+515.148C434.121+515.148+467.578+521.949+466.751+521.91C459.163+521.55+401.236+524.353+401.236+524.353L440.997+483.225Z" fill="#e5e5e5" stroke-linecap="round" fill-opacity="0" opacity="1" stroke-linejoin="round"/>
<path stroke="#000000" stroke-width="4.51314" d="M610.138+525.935L628.579+514.13L624.318+496.308L651.201+523.845L610.138+525.935Z" fill="#e5e5e5" stroke-linecap="round" fill-opacity="0" opacity="1" stroke-linejoin="round"/>
<path stroke="#000000" stroke-width="4.51314" d="M559.007+431.785L511.321+406.89L492.878+419.603L515.388+387.977L559.007+431.785Z" fill="#e5e5e5" stroke-linecap="round" fill-opacity="0" opacity="1" stroke-linejoin="round"/>
<path stroke="#000000" stroke-width="4.51314" d="M661.804+753.623L678.343+738.352L654.54+692.994L705.036+750.325L661.804+753.623Z" fill="#e5e5e5" stroke-linecap="round" fill-opacity="0" opacity="1" stroke-linejoin="round"/>
<path stroke="#000000" stroke-width="6.36743" d="M381.74+725.54L398.477+740.112L408.147+751.316L367.727+750.356L381.74+725.54Z" fill="#e5e5e5" stroke-linecap="round" fill-opacity="0" opacity="1" stroke-linejoin="round"/>
<path stroke="#000000" stroke-width="6.36743" d="M326.155+554.478C321.291+557.071+311.097+556.133+305.129+558.008C308.604+552.946+313.825+547.913+318.17+543.564C317.547+546.631+314.373+549.357+313.058+552.419C315.151+552.348+316.938+550.122+319.164+550.364C320.196+551.965+316.296+553.574+315.406+552.452C320.651+550.376+322.833+552.834+315.718+552.618C315.976+552.065+318.775+552.145+319.006+550.775C316.761+550.794+314.999+553.24+312.781+552.784C313.057+550.017+317.185+545.247+317.953+544.062C313.969+548.783+309.497+553.1+305.521+557.801C305.376+557.732+305.973+557.736+306.075+557.734C312.446+555.501+326.155+554.478+326.155+554.478Z" fill="#e5e5e5" stroke-linecap="round" fill-opacity="0" opacity="1" stroke-linejoin="round"/>
<path stroke="#000000" stroke-width="6.36743" d="M409.105+522.403C407.282+521.394+414.688+520.269+415.015+519.808C412.837+519.238+409.873+521.175+408.096+520.332C410.398+518.82+413.301+517.698+415.8+516.464C415.816+518.156+414.414+516.321+415.443+516.843C413.417+518.529+410.686+519.444+408.328+520.41C410.004+520.027+413.92+518.253+415.329+519.941C413.507+521.198+409.105+522.403+409.105+522.403Z" fill="#e5e5e5" stroke-linecap="round" fill-opacity="0" opacity="1" stroke-linejoin="round"/>
<path stroke="#000000" stroke-width="6.36743" d="M514.276+399.703C515.464+400.232+512.415+401.015+512.609+399.72C512.595+397.227+513.91+393.489+516.726+393.228C519.379+396.159+521.62+399.453+524.294+402.346C524.586+407.731+518.497+393.078+516.156+393.71C514.417+394.275+514.276+399.703+514.276+399.703Z" fill="#e5e5e5" stroke-linecap="round" fill-opacity="0" opacity="1" stroke-linejoin="round"/>
<path stroke="#000000" stroke-width="6.36743" d="M640.72+519.654C639.642+518.324+643.694+520.155+643.473+521.178C643.755+521.072+644.763+519.861+643.567+521.677C642.275+521.613+640.72+519.654+640.72+519.654Z" fill="#e5e5e5" stroke-linecap="round" fill-opacity="0" opacity="1" stroke-linejoin="round"/>
<path stroke="#000000" stroke-width="6.36743" d="M756.49+535.625C761.634+542.441+772.783+550.616+780.901+555.468C774.745+552.871+767.006+555.615+760.481+556.573C771.103+552.936+762.364+542.459+759.379+536.031C764.59+539.893+763.897+545.229+759.843+536.198C763.137+542.094+771.888+554.004+760.55+556.322C766.902+554.9+774.455+552.339+780.817+555.081C781.151+555.218+781.217+555.814+780.812+555.874C772.598+550.27+756.49+535.625+756.49+535.625Z" fill="#e5e5e5" stroke-linecap="round" fill-opacity="0" opacity="1" stroke-linejoin="round"/>
<path stroke="#000000" stroke-width="6.36743" d="M690.76+736.025C692.547+736.687+696.842+743.502+699.115+746.652C700.169+748.113+698.846+746.987+700.134+747.335C695.439+748.296+689.846+745.984+685.379+746.811C687.904+746.777+691.499+746.133+692.28+743.284C691.979+742.829+691.245+742.659+690.816+743.037C688.194+748.529+689.879+739.83+692.733+743.109C692.704+746.188+686.597+748.483+685.172+746.624C689.838+745.412+695.716+747.305+699.89+747.391C695.508+745.237+690.76+736.025+690.76+736.025Z" fill="#e5e5e5" stroke-linecap="round" fill-opacity="0" opacity="1" stroke-linejoin="round"/>
<path stroke="#000000" stroke-width="6.36743" d="M383.697+742.82C383.844+741.782+385.171+743.668+384.032+743.915C381.515+745.635+377.842+745.653+375.185+744.981C377.281+739.883+376.062+741.121+373.656+745.243C376.206+744.244+378.632+742.092+380.14+739.792C376.889+744.553+377.502+738.535+380.596+739.851C379.182+742.016+375.764+746.255+373.226+745.2C374.397+740.774+378.882+739.569+375.582+744.739C377.883+744.677+383.697+742.82+383.697+742.82Z" fill="#e5e5e5" stroke-linecap="round" fill-opacity="0" opacity="1" stroke-linejoin="round"/>
</g>
</svg>
